<?xml version="1.0" encoding="UTF-8"?>
<svg version="1.1" xmlns="http://www.w3.org/2000/svg" width="400" height="225">
<path d="M0 0 C0.66 0 1.32 0 2 0 C3.30973808 1.68437037 4.54824593 3.42446157 5.75 5.1875 C9.25753954 10.14269677 12.47915706 14.23957853 18 17 C23.5914646 17.48142992 27.36687704 16.2745027 32.1875 13.625 C32.79013672 13.30789062 33.39277344 12.99078125 34.01367188 12.6640625 C35.6808675 11.78562792 37.34072275 10.89330151 39 10 C40.33032073 9.32734185 41.66205111 8.65735454 43 8 C43 8.66 43 9.32 43 10 C41.31562963 11.30973808 39.57553843 12.54824593 37.8125 13.75 C32.85730323 17.25753954 28.76042147 20.47915706 26 26 C25.08052582 32.04225887 26.84144183 37.14380544 29.6328125 42.51953125 C32.28723522 45.3009808 33.94498083 45.76446949 37.7409668 46.03198242 C39.87438726 46.06249124 42.00329131 46.06013014 44.13671875 46.03125 C49.10971821 45.99102351 51.71988995 46.49653941 56 49 C61.46302374 54.49351681 61.60063611 60.65876845 61.5859375 68.07421875 C61.56418457 69.07267822 61.56418457 69.07267822 61.54199219 70.09130859 C61.49993276 72.1282565 61.50095121 74.16190698 61.5078125 76.19921875 C61.37689599 89.38251091 61.37689599 89.38251091 56.46484375 94.64453125 C52.6478525 97.56340691 50.60120647 99.12748891 45.82568359 99.11352539 C44.53457169 99.11341209 44.53457169 99.11341209 43.21737671 99.11329651 C42.28712677 99.10813522 41.35687683 99.10297394 40.3984375 99.09765625 C39.44683746 99.0962413 38.49523743 99.09482635 37.51480103 99.09336853 C34.46816903 99.08776012 31.42160987 99.07520619 28.375 99.0625 C26.31250106 99.05748608 24.25000097 99.05292299 22.1875 99.04882812 C17.12497183 99.03778796 12.06249827 99.02051767 7 99 C7 100.32 7 101.64 7 103 C8.13953125 102.98428955 9.2790625 102.9685791 10.453125 102.95239258 C14.70972534 102.89779967 18.96629515 102.86354377 23.22314453 102.83520508 C25.06011166 102.82018504 26.89704334 102.79976291 28.73388672 102.77368164 C31.38518054 102.73699798 34.03599732 102.72020562 36.6875 102.70703125 C37.49928711 102.69154739 38.31107422 102.67606354 39.14746094 102.66011047 C46.03999669 102.65810869 51.5472743 103.91257387 56.9375 108.5 C61.46960135 113.99345618 60.18408493 120.97449415 60.1875 127.75 C60.19974609 129.01328125 60.21199219 130.2765625 60.22460938 131.578125 C60.24797292 146.4061851 60.24797292 146.4061851 55.5625 151.8125 C51.60108279 155.19419762 49.60020976 156.25024296 44.44970703 156.24291992 C43.31066925 156.24599655 42.17163147 156.24907318 40.99807739 156.25224304 C39.76378998 156.24505753 38.52950256 156.23787201 37.2578125 156.23046875 C35.98332245 156.23001053 34.7088324 156.22955231 33.39572144 156.2290802 C30.69043791 156.22605443 27.98549277 156.21923154 25.28027344 156.20581055 C21.85021385 156.1889911 18.42030174 156.18499152 14.99020576 156.18575573 C11.68355578 156.18541409 8.37695176 156.17653988 5.0703125 156.16796875 C3.8562674 156.16685593 2.64222229 156.1657431 1.39138794 156.16459656 C-26.76997155 156.01110984 -26.76997155 156.01110984 -35.875 148.6875 C-37.8579891 146.76565045 -37.8579891 146.76565045 -40.375 146.9375 C-43.23061768 147.95985661 -43.23061768 147.95985661 -46.125 150.375 C-54.03148213 156.26880269 -63.96002867 156.45931988 -73.45703125 156.43359375 C-75.17692513 156.44145653 -75.17692513 156.44145653 -76.93156433 156.44947815 C-79.33579706 156.45585852 -81.74006118 156.45461354 -84.14428711 156.44604492 C-87.82005874 156.43748239 -91.49430117 156.46643864 -95.16992188 156.49804688 C-97.51562454 156.49965786 -99.86132994 156.49908333 -102.20703125 156.49609375 C-103.30086624 156.50732773 -104.39470123 156.51856171 -105.52168274 156.53013611 C-111.66771034 156.47389455 -115.32680718 156.11815215 -120 152 C-124.23986828 147.32152466 -124.21914747 142.33711703 -124.52734375 136.25 C-124.56866928 135.46705566 -124.60999481 134.68411133 -124.65257263 133.87744141 C-125.12684378 124.29815405 -125.31985378 114.71155723 -125.50268555 105.12304688 C-125.5624269 102.00381667 -125.62752135 98.88473188 -125.69335938 95.765625 C-125.79612414 90.77410883 -125.8831084 85.78254753 -125.95733643 80.79052734 C-125.98524209 78.96528131 -126.01616556 77.14007828 -126.05047607 75.31494141 C-126.09503835 72.85580305 -126.12580229 70.39689021 -126.15234375 67.9375 C-126.16745499 67.22996582 -126.18256622 66.52243164 -126.19813538 65.79345703 C-126.23481603 59.90458556 -125.46652591 54.94099017 -121.875 50.1875 C-116.42894106 46.0437595 -110.00438197 45.7493526 -103.34375 45.5859375 C-102.63835083 45.56657135 -101.93295166 45.5472052 -101.20617676 45.5272522 C-98.97090296 45.46818758 -96.7355644 45.42159448 -94.5 45.375 C-93.03383387 45.33670704 -91.5676875 45.2976493 -90.1015625 45.2578125 C-54.2732 44.33182056 -54.2732 44.33182056 -41 55 C-40.32195312 54.52949219 -39.64390625 54.05898437 -38.9453125 53.57421875 C-38.01460938 52.95160156 -37.08390625 52.32898438 -36.125 51.6875 C-34.76761719 50.76517578 -34.76761719 50.76517578 -33.3828125 49.82421875 C-25.30973531 45.47072332 -17.58265067 44.56652485 -8.5234375 44.70703125 C-6.94654648 44.71339851 -6.94654648 44.71339851 -5.33779907 44.71989441 C-2.01659317 44.73653861 1.30398094 44.77416386 4.625 44.8125 C6.89191825 44.82756527 9.15884612 44.84125043 11.42578125 44.85351562 C16.95073236 44.88639518 22.47532102 44.93644991 28 45 C24.93423356 40.23175475 22.15905123 36.57952561 17 34 C11.4085354 33.51857008 7.63312296 34.7254973 2.8125 37.375 C2.20986328 37.69210938 1.60722656 38.00921875 0.98632812 38.3359375 C-0.6808675 39.21437208 -2.34072275 40.10669849 -4 41 C-5.33032073 41.67265815 -6.66205111 42.34264546 -8 43 C-8 42.34 -8 41.68 -8 41 C-6.31562963 39.69026192 -4.57553843 38.45175407 -2.8125 37.25 C2.14269677 33.74246046 6.23957853 30.52084294 9 25 C9.70743071 16.6488668 5.92182713 10.62723439 1.71484375 3.80859375 C0 1 0 1 0 0 Z " fill="#211E1F" transform="translate(235,25)"/>
<path d="M0 0 C1.03512726 -0.0127597 2.07025452 -0.02551941 3.13674927 -0.03866577 C4.26064056 -0.04089142 5.38453186 -0.04311707 6.54248047 -0.04541016 C8.27436111 -0.05539536 8.27436111 -0.05539536 10.04122925 -0.06558228 C12.49084883 -0.07572627 14.94049615 -0.08039876 17.39013672 -0.08007812 C21.12368043 -0.0844307 24.85602271 -0.12067678 28.58935547 -0.15869141 C30.96955976 -0.16456341 33.34976967 -0.16853023 35.72998047 -0.17041016 C36.84172638 -0.18478119 37.95347229 -0.19915222 39.09890747 -0.21395874 C47.34952814 -0.1657934 52.88208023 1.20799711 58.84716797 7.04052734 C63.99142529 14.68342394 64.5017614 21.3954096 64.50341797 30.38427734 C64.51483826 32.10342346 64.51483826 32.10342346 64.52648926 33.8572998 C64.53725431 36.2710554 64.54015807 38.68485743 64.53564453 41.09863281 C64.53467095 44.77927537 64.57636467 48.45784076 64.62060547 52.13818359 C64.62581215 54.49104386 64.62850067 56.84391132 64.62841797 59.19677734 C64.64481323 60.28970093 64.6612085 61.38262451 64.67810059 62.50866699 C64.60358959 70.79357983 62.56657614 75.75861917 56.72216797 81.60302734 C49.23959648 86.30138619 42.7280983 86.70789664 34.09716797 86.58349609 C32.97648926 86.57925125 31.85581055 86.57500641 30.70117188 86.57063293 C27.14541923 86.55393045 23.59024738 86.51629302 20.03466797 86.47802734 C17.61410328 86.46296965 15.19352964 86.44928315 12.77294922 86.43701172 C6.85999289 86.40405455 0.94737194 86.35393937 -4.96533203 86.29052734 C-5.76494733 81.32894922 -6.13771628 76.48717946 -6.20239258 71.45922852 C-6.21550476 70.71039398 -6.22861694 69.96155945 -6.24212646 69.19003296 C-6.28359476 66.73790382 -6.31829322 64.28574272 -6.35205078 61.83349609 C-6.37773019 60.12193144 -6.40351406 58.41036834 -6.42939758 56.69880676 C-6.48218437 53.12403092 -6.53114414 49.54922501 -6.57788086 45.97436523 C-6.63854032 41.38630401 -6.71274793 36.79856824 -6.79025555 32.21076488 C-6.84771426 28.68250239 -6.89607193 25.15415841 -6.94184303 21.6257267 C-6.96528392 19.9331406 -6.99204805 18.24059722 -7.02216148 16.54811668 C-7.06314609 14.19037447 -7.09142742 11.8328115 -7.11645508 9.47485352 C-7.13891045 8.42212502 -7.13891045 8.42212502 -7.16181946 7.34812927 C-7.17293382 5.6610268 -7.07836513 3.97387573 -6.96533203 2.29052734 C-4.42758322 -0.24722147 -3.51844584 0.02938022 0 0 Z " fill="#FDFDFD" transform="translate(127.96533203125,82.70947265625)"/>
<path d="M0 0 C1.70796753 0.00181274 1.70796753 0.00181274 3.45043945 0.00366211 C4.68624756 0.0166333 5.92205566 0.02960449 7.1953125 0.04296875 C8.48203857 0.05013916 9.76876465 0.05730957 11.09448242 0.06469727 C22.60877889 0.14514085 34.12166062 0.39784668 45.6328125 0.66796875 C46.50862976 0.68743561 47.38444702 0.70690247 48.2868042 0.72695923 C50.77340889 0.78384081 53.25972599 0.84770483 55.74609375 0.9140625 C56.49886093 0.9307901 57.25162811 0.9475177 58.02720642 0.9647522 C63.20526498 1.11542123 63.20526498 1.11542123 64.3203125 2.23046875 C64.42014308 4.21803903 64.45112003 6.20914395 64.453125 8.19921875 C64.45441406 9.40964844 64.45570313 10.62007812 64.45703125 11.8671875 C64.45316406 13.14207031 64.44929688 14.41695312 64.4453125 15.73046875 C64.44917969 17.00535156 64.45304687 18.28023437 64.45703125 19.59375 C64.45574219 20.80417969 64.45445312 22.01460937 64.453125 23.26171875 C64.45199707 24.38126953 64.45086914 25.50082031 64.44970703 26.65429688 C64.3203125 29.23046875 64.3203125 29.23046875 63.3203125 30.23046875 C61.66292807 30.3239379 60.00156606 30.34791852 58.34155273 30.34399414 C57.28052841 30.34391861 56.21950409 30.34384308 55.12632751 30.34376526 C53.9721785 30.33860397 52.81802948 30.33344269 51.62890625 30.328125 C50.45393082 30.32671005 49.27895538 30.3252951 48.06837463 30.32383728 C44.29816186 30.31821867 40.52800746 30.30566301 36.7578125 30.29296875 C34.20898523 30.28795615 31.66015703 30.28339283 29.11132812 30.27929688 C22.84761541 30.26909206 16.58402966 30.24952027 10.3203125 30.23046875 C10.6503125 39.14046875 10.9803125 48.05046875 11.3203125 57.23046875 C14.99027344 57.29105469 18.66023438 57.35164063 22.44140625 57.4140625 C25.97927021 57.47579579 29.51710038 57.5392067 33.05493164 57.6027832 C35.52169819 57.64620818 37.98849628 57.68787747 40.45532227 57.7277832 C43.99244716 57.7853032 47.52941216 57.8490495 51.06640625 57.9140625 C52.17680771 57.93077499 53.28720917 57.94748749 54.43125916 57.96470642 C55.96273338 57.99462425 55.96273338 57.99462425 57.52514648 58.02514648 C58.42893539 58.04069077 59.3327243 58.05623505 60.26390076 58.07225037 C62.3203125 58.23046875 62.3203125 58.23046875 63.3203125 59.23046875 C63.42014308 61.21803903 63.45112003 63.20914395 63.453125 65.19921875 C63.45441406 66.40964844 63.45570313 67.62007813 63.45703125 68.8671875 C63.45316406 70.14207031 63.44929688 71.41695313 63.4453125 72.73046875 C63.44917969 74.00535156 63.45304687 75.28023438 63.45703125 76.59375 C63.45574219 77.80417969 63.45445312 79.01460938 63.453125 80.26171875 C63.45199707 81.38126953 63.45086914 82.50082031 63.44970703 83.65429688 C63.3203125 86.23046875 63.3203125 86.23046875 62.3203125 87.23046875 C60.37939545 87.34026513 58.43446149 87.37958465 56.49047852 87.39160156 C54.617015 87.40601288 54.617015 87.40601288 52.70570374 87.42071533 C51.32854393 87.42556663 49.951382 87.42984464 48.57421875 87.43359375 C47.16470844 87.43934704 45.75519814 87.44510475 44.34568787 87.4508667 C41.38060135 87.46139413 38.41554204 87.46722347 35.45043945 87.47070312 C31.67463435 87.47615205 27.89919644 87.50009415 24.12350559 87.52867508 C21.20559193 87.54743601 18.28776369 87.55251443 15.36979485 87.554039 C13.97970539 87.55704245 12.58961659 87.56499182 11.19958687 87.57822418 C-8.70479673 87.75397201 -8.70479673 87.75397201 -16.1171875 81.04296875 C-16.73464844 80.51316406 -17.35210937 79.98335938 -17.98828125 79.4375 C-22.43456009 73.63577357 -23.12103191 67.45146187 -23.0078125 60.41015625 C-23.00593933 59.58903351 -23.00406616 58.76791077 -23.00213623 57.92190552 C-22.99545204 56.19236155 -22.98161059 54.46283176 -22.9609375 52.73339844 C-22.93001863 50.13331442 -22.91997664 47.5338429 -22.9140625 44.93359375 C-22.77092755 13.62403897 -22.77092755 13.62403897 -16.03515625 6.48828125 C-11.10895248 2.00210875 -6.75560333 -0.02825453 0 0 Z " fill="#FBFBFB" transform="translate(219.6796875,81.76953125)"/>
<path d="M0 0 C0.87734802 0.00182281 1.75469604 0.00364563 2.65863037 0.00552368 C16.43798617 0.05361124 29.8822219 0.64631062 43.4375 3.3125 C44.34516113 3.48942383 45.25282227 3.66634766 46.18798828 3.84863281 C59.51011509 6.52368446 72.48723372 10.22515999 85.4375 14.3125 C82.06809723 15.42960466 79.79574176 15.17304327 76.359375 14.38671875 C75.37203369 14.16790039 74.38469238 13.94908203 73.36743164 13.72363281 C72.3180542 13.48483398 71.26867676 13.24603516 70.1875 13 C21.38683957 2.44420104 -33.37159318 5.01108005 -77.2109375 30.875 C-79.39267203 32.28355843 -81.48280154 33.75762187 -83.5625 35.3125 C-84.38105469 35.91707031 -85.19960937 36.52164063 -86.04296875 37.14453125 C-98.02030187 46.33138131 -108.97341565 59.44881158 -111.3828125 74.93359375 C-112.9965587 96.29819013 -106.98618869 112.93966759 -93.5625 129.3125 C-106.32184621 124.96117767 -115.72020949 110.7907917 -122.01953125 99.50390625 C-128.00200075 87.13003895 -129.67229609 73.9470092 -126 60.625 C-118.11488618 38.35635098 -100.88775516 25.62225211 -80.4375 15.625 C-55.24682319 3.77565597 -27.60168438 -0.11941558 0 0 Z " fill="#E9E9E9" transform="translate(144.5625,24.6875)"/>
<path d="M0 0 C1.15071487 -0.01058945 1.15071487 -0.01058945 2.32467651 -0.02139282 C30.31683748 -0.22005393 57.0922175 1.82353486 83.75 11.203125 C79.87981965 12.63403535 76.88891943 11.77853714 72.9375 10.890625 C28.21699815 1.41249999 -22.60440751 4.92577437 -62.30859375 29.16796875 C-75.8901801 38.56505572 -87.51334854 50.04192996 -91.86328125 66.52734375 C-94.58040588 85.32765056 -89.14747261 100.12410125 -78.3125 115.453125 C-77.631875 116.360625 -76.95125 117.268125 -76.25 118.203125 C-89.33784015 112.48659712 -100.14663691 97.30928779 -105.35546875 84.48046875 C-109.05735119 72.67963223 -108.20815064 60.48048724 -103.25 49.203125 C-90.58000378 26.44660251 -66.8203113 13.73246161 -42.4375 6.765625 C-28.58325524 2.9964177 -14.39608399 0.08876817 0 0 Z " fill="#E8E8E8" transform="translate(151.25,40.796875)"/>
<path d="M0 0 C0.66 0 1.32 0 2 0 C3.30973808 1.68437037 4.54824593 3.42446157 5.75 5.1875 C9.25753954 10.14269677 12.47915706 14.23957853 18 17 C23.5914646 17.48142992 27.36687704 16.2745027 32.1875 13.625 C33.09145508 13.14933594 33.09145508 13.14933594 34.01367188 12.6640625 C35.6808675 11.78562792 37.34072275 10.89330151 39 10 C40.33032073 9.32734185 41.66205111 8.65735454 43 8 C43 8.66 43 9.32 43 10 C41.31562963 11.30973808 39.57553843 12.54824593 37.8125 13.75 C32.85730323 17.25753954 28.76042147 20.47915706 26 26 C25.00700158 32.52541818 27.65670744 36.77187262 30.78515625 42.42578125 C31.18605469 43.27527344 31.58695312 44.12476563 32 45 C31.505 45.99 31.505 45.99 31 47 C30.32453125 46.22914062 29.6490625 45.45828125 28.953125 44.6640625 C28.05240656 43.65075426 27.15134687 42.63774929 26.25 41.625 C25.8065625 41.11710937 25.363125 40.60921875 24.90625 40.0859375 C21.2562507 36.00652652 19.14747726 34.21855982 13.69921875 33.6640625 C9.49912749 34.04548578 6.44367796 35.37923807 2.8125 37.375 C2.20986328 37.69210938 1.60722656 38.00921875 0.98632812 38.3359375 C-0.6808675 39.21437208 -2.34072275 40.10669849 -4 41 C-5.33032073 41.67265815 -6.66205111 42.34264546 -8 43 C-8 42.34 -8 41.68 -8 41 C-6.31562963 39.69026192 -4.57553843 38.45175407 -2.8125 37.25 C2.14269677 33.74246046 6.23957853 30.52084294 9 25 C9.70743071 16.6488668 5.92182713 10.62723439 1.71484375 3.80859375 C0 1 0 1 0 0 Z " fill="#DDDDDD" transform="translate(235,25)"/>
<path d="M0 0 C1.65 0.33 3.3 0.66 5 1 C5 12.22 5 23.44 5 35 C3.02 35.495 3.02 35.495 1 36 C-1.46906968 33.53093032 -1.23647118 32.13726231 -1.25224304 28.76768494 C-1.24505753 28.05930984 -1.23787201 27.35093475 -1.23046875 26.62109375 C-1.23001053 25.89382584 -1.22955231 25.16655792 -1.2290802 24.41725159 C-1.22605836 22.87979501 -1.21817405 21.34234148 -1.20581055 19.80493164 C-1.18754573 17.44341265 -1.1853009 15.08228539 -1.18554688 12.72070312 C-1.18063203 11.22916326 -1.17480386 9.73762606 -1.16796875 8.24609375 C-1.16685593 7.53569443 -1.1657431 6.8252951 -1.16459656 6.09336853 C-1.11605365 1.11605365 -1.11605365 1.11605365 0 0 Z " fill="#3B3738" transform="translate(155,108)"/>
<path d="M0 0 C11.33033456 1.36057848 22.09912766 4.74321886 33 8 C28.98548636 9.18093111 26.28870505 8.60907004 22.1875 7.6875 C14.4981333 6.02263401 6.80979221 4.94160615 -1 4 C-0.34 3.34 0.32 2.68 1 2 C0.67 1.34 0.34 0.68 0 0 Z " fill="#989898" transform="translate(202,44)"/>
<path d="M0 0 C17.85649203 4.03872437 17.85649203 4.03872437 26 7 C22.47020092 8.20467209 19.96986544 7.79130044 16.359375 7.00390625 C15.28945312 6.77509766 14.21953125 6.54628906 13.1171875 6.31054688 C12.00601563 6.06369141 10.89484375 5.81683594 9.75 5.5625 C8.62335938 5.31951172 7.49671875 5.07652344 6.3359375 4.82617188 C3.55548119 4.22531055 0.77706428 3.61631561 -2 3 C-1.34 2.67 -0.68 2.34 0 2 C0 1.34 0 0.68 0 0 Z " fill="#7A7A7A" transform="translate(204,32)"/>
<path d="M0 0 C0.66 0.33 1.32 0.66 2 1 C-0.55961477 3.41973774 -3.12320017 5.83522853 -5.6875 8.25 C-6.40873047 8.93191406 -7.12996094 9.61382812 -7.87304688 10.31640625 C-11.47347353 13.70310895 -15.06962938 16.9921424 -19 20 C-15.90809587 11.01949454 -7.38309337 5.46895805 0 0 Z " fill="#AEAEAE" transform="translate(72,64)"/>
<path d="M0 0 C1.65804926 2.4870739 3.19874478 4.97317502 4.6875 7.5625 C5.14511719 8.34753906 5.60273438 9.13257812 6.07421875 9.94140625 C6.37972656 10.62074219 6.68523437 11.30007812 7 12 C6.67 12.66 6.34 13.32 6 14 C3.03 10.7 0.06 7.4 -3 4 C-2.01 2.68 -1.02 1.36 0 0 Z " fill="#959595" transform="translate(260,58)"/>
<path d="M0 0 C0.33 0.66 0.66 1.32 1 2 C1.66 2.33 2.32 2.66 3 3 C-1.62 5.64 -6.24 8.28 -11 11 C-11.33 10.34 -11.66 9.68 -12 9 C-11.21753906 8.43410156 -10.43507812 7.86820312 -9.62890625 7.28515625 C-8.61699219 6.55167969 -7.60507813 5.81820312 -6.5625 5.0625 C-5.55316406 4.33160156 -4.54382813 3.60070313 -3.50390625 2.84765625 C-1.17707392 1.22678115 -1.17707392 1.22678115 0 0 Z " fill="#858585" transform="translate(239,57)"/>
<path d="M0 0 C0.33 0.66 0.66 1.32 1 2 C-2.63 4.31 -6.26 6.62 -10 9 C-10.66 8.34 -11.32 7.68 -12 7 C-8.04 4.69 -4.08 2.38 0 0 Z " fill="#848484" transform="translate(277,33)"/>
<path d="M0 0 C1.98 0.99 1.98 0.99 4 2 C3.67 3.98 3.34 5.96 3 8 C2.01 7.67 1.02 7.34 0 7 C0 4.69 0 2.38 0 0 Z " fill="#221F20" transform="translate(155,136)"/>
<path d="M0 0 C2.64 0.33 5.28 0.66 8 1 C6.875 2.5 6.875 2.5 5 4 C1.8125 4.1875 1.8125 4.1875 -1 4 C-0.34 3.34 0.32 2.68 1 2 C0.67 1.34 0.34 0.68 0 0 Z " fill="#878787" transform="translate(202,44)"/>
<path d="M0 0 C2.31 0.66 4.62 1.32 7 2 C7 2.33 7 2.66 7 3 C4.03 3 1.06 3 -2 3 C-1.34 2.67 -0.68 2.34 0 2 C0 1.34 0 0.68 0 0 Z " fill="#B2B2B2" transform="translate(204,32)"/>
<path d="M0 0 C2 1 2 1 2 1 Z " fill="#0F0F0F" transform="translate(230,40)"/>
</svg>
