<?xml version="1.0" encoding="UTF-8"?>
<svg version="1.1" xmlns="http://www.w3.org/2000/svg" width="508" height="200">
<path d="M0 0 C0.33 9.24 0.66 18.48 1 28 C-0.65 28 -2.3 28 -4 28 C-4.38478516 27.09121094 -4.38478516 27.09121094 -4.77734375 26.1640625 C-10.92708763 12.70502708 -21.03791207 3.85822201 -34.8125 -1.375 C-49.60617598 -6.25066222 -65.30618372 -4.63156806 -79.3125 2.125 C-92.70210171 9.35089679 -99.68216465 20.45640915 -104.1640625 34.69921875 C-104.86313152 37.45956138 -105.45474328 40.20682286 -106 43 C-105.43192627 42.71801758 -104.86385254 42.43603516 -104.27856445 42.14550781 C-72.47215087 26.44324117 -72.47215087 26.44324117 -57 29 C-54.47638702 30.84199404 -53.19175624 31.89255383 -52.65234375 35.0078125 C-53.46954088 41.0752213 -55.16468342 47.11868799 -59 52 C-61.671875 52.78125 -61.671875 52.78125 -64 53 C-63.57492136 49.59937086 -62.56901537 47.08824699 -60.9375 44.125 C-58.85394493 40.16850192 -58.63142743 37.42287078 -59 33 C-64.40549558 31.89369391 -68.45606837 32.21966292 -73.75 33.875 C-74.47082764 34.09333496 -75.19165527 34.31166992 -75.93432617 34.53662109 C-84.99483942 37.43295902 -93.61321851 41.53835271 -102 46 C-102.83015625 46.40476563 -103.6603125 46.80953125 -104.515625 47.2265625 C-107.0706353 50.27912744 -106.53887072 53.96252249 -106.4375 57.75 C-106.4264624 58.59240234 -106.4154248 59.43480469 -106.40405273 60.30273438 C-106.17266139 69.09394677 -104.7866101 77.6401697 -102 86 C-96.30948637 85.4618629 -90.65134116 84.8599867 -85 84 C-85 84.99 -85 85.98 -85 87 C-86.9363704 87.50435694 -88.87414146 88.00333874 -90.8125 88.5 C-91.89144531 88.7784375 -92.97039062 89.056875 -94.08203125 89.34375 C-97 90 -97 90 -100 90 C-95.41549306 104.89964756 -84.88482714 116.9197968 -71.35595703 124.38574219 C-58.78521094 130.91783081 -43.0941673 132.5435102 -29.4375 128.375 C-13.96925993 122.26461787 -7.1365826 111.23609204 0 97 C1.32 97 2.64 97 4 97 C3.64474524 100.93445602 3.27199102 104.86682218 2.88305664 108.7980957 C2.68946548 110.79225379 2.50969941 112.78773822 2.33007812 114.78320312 C2.14155273 116.66362305 2.14155273 116.66362305 1.94921875 118.58203125 C1.78425903 120.31803589 1.78425903 120.31803589 1.6159668 122.08911133 C0.95993369 125.18934232 0.54144559 126.19112351 -2 128 C-3.80249023 128.85961914 -3.80249023 128.85961914 -5.80859375 129.53515625 C-6.93104492 129.91317383 -6.93104492 129.91317383 -8.07617188 130.29882812 C-9.2450293 130.6768457 -9.2450293 130.6768457 -10.4375 131.0625 C-11.18193359 131.31837891 -11.92636719 131.57425781 -12.69335938 131.83789062 C-24.12246787 135.60881785 -35.41633754 136.37310593 -47.35229492 136.37060547 C-49.66726284 136.37496192 -51.98029092 136.41136666 -54.29492188 136.44921875 C-67.80358487 136.55260732 -81.47516255 134.78502265 -93.5 128.1875 C-94.15814697 127.84058105 -94.81629395 127.49366211 -95.49438477 127.13623047 C-107.96807279 120.39061762 -118.90728541 110.52752313 -124 97 C-124.37116673 95.3413487 -124.71528656 93.67565723 -125 92 C-125.86882812 92.03480469 -126.73765625 92.06960937 -127.6328125 92.10546875 C-139.56353839 92.3857207 -139.56353839 92.3857207 -144 89 C-146 86.8125 -146 86.8125 -147 84 C-146.22619947 74.8691537 -139.82643458 68.22977929 -133.0625 62.5 C-131.5465625 61.2625 -131.5465625 61.2625 -130 60 C-129.67 59.34 -129.34 58.68 -129 58 C-135.6 58.99 -142.2 59.98 -149 61 C-149.391875 63.990625 -149.78375 66.98125 -150.1875 70.0625 C-153.00522163 89.54525918 -159.78528147 107.16261631 -175.625 119.5625 C-191.42697243 130.97719262 -207.56627428 134.67264736 -226.65625 134.390625 C-228.18037156 134.38313623 -229.70450294 134.37745583 -231.2286377 134.37347412 C-235.18084759 134.35842445 -239.13244044 134.3193303 -243.08441162 134.2746582 C-247.14082499 134.23325054 -251.19734108 134.21536747 -255.25390625 134.1953125 C-263.16954953 134.15280827 -271.08469737 134.08481918 -279 134 C-278.2421875 130.21875 -278.2421875 130.21875 -276.0625 128.25 C-271.30638769 123.06151385 -271.55847069 114.70164829 -271 108 C-274.96 108 -278.92 108 -283 108 C-283.66 106.68 -284.32 105.36 -285 104 C-283.69589604 100.76134923 -282.73463261 99.34143148 -279.54370117 97.85839844 C-278.21302612 97.36388184 -278.21302612 97.36388184 -276.85546875 96.859375 C-274.05812052 95.44880784 -274.05812052 95.44880784 -272 93 C-270.67019066 86.72899797 -271.01386676 80.62124138 -271.3125 74.25 C-271.35411655 72.51182082 -271.39127249 70.77352875 -271.42382812 69.03515625 C-271.18992405 61.28175048 -271.18992405 61.28175048 -273 54 C-273.23076923 48.46153846 -273.23076923 48.46153846 -272 46 C-271.88864713 43.24930339 -271.83587868 40.52474987 -271.83203125 37.7734375 C-271.82870285 36.95179108 -271.82537445 36.13014465 -271.82194519 35.28359985 C-271.81687563 33.54014648 -271.81453687 31.79668339 -271.81469727 30.05322266 C-271.81252577 27.40640831 -271.79441237 24.76002098 -271.77539062 22.11328125 C-271.77245357 20.41666808 -271.77047087 18.72005295 -271.76953125 17.0234375 C-271.76234573 16.23979828 -271.75516022 15.45615906 -271.74775696 14.64877319 C-271.76897107 9.45162789 -272.40457315 4.9634749 -274 0 C-276.53442406 -2.22816986 -276.53442406 -2.22816986 -279 -4 C-279 -5.32 -279 -6.64 -279 -8 C-270.93180105 -8.07014396 -262.86373383 -8.12313265 -254.79530334 -8.15543652 C-251.04701816 -8.17095673 -247.29894466 -8.19193817 -243.55078125 -8.22631836 C-239.91972843 -8.2594081 -236.28887652 -8.27695492 -232.65768433 -8.28463173 C-230.62857423 -8.29270583 -228.59954265 -8.31604109 -226.57055664 -8.33988953 C-207.48038489 -8.34326866 -189.09561861 -4.1806026 -174 8 C-173.23171875 8.58265625 -172.4634375 9.1653125 -171.671875 9.765625 C-158.92705436 20.08286076 -151.72761628 36.90996181 -150 53 C-149.97454001 54.66647219 -149.96726822 56.33365478 -150 58 C-148.98292969 57.7834375 -148.98292969 57.7834375 -147.9453125 57.5625 C-141.53707616 56.284403 -135.52803984 55.74510907 -129 56 C-128.84144531 55.12859375 -128.68289062 54.2571875 -128.51953125 53.359375 C-124.64304352 33.57001225 -115.87060131 16.85585129 -98.86425781 5.35473633 C-69.98360699 -13.35507283 -30.88557869 -15.44278935 0 0 Z M-249 -3 C-249.08843793 -0.55169574 -249.11528752 1.86820599 -249.09765625 4.31640625 C-249.0962413 5.04746078 -249.09482635 5.77851532 -249.09336853 6.53172302 C-249.08775408 8.87535632 -249.07519922 11.21889539 -249.0625 13.5625 C-249.05748686 15.14778508 -249.05292363 16.73307166 -249.04882812 18.31835938 C-249.03777997 22.2122761 -249.02050572 26.10612205 -249 30 C-246.92346124 31.3261763 -246.92346124 31.3261763 -244.2265625 30.14453125 C-243.03804687 29.70496094 -241.84953125 29.26539063 -240.625 28.8125 C-224.5442255 23.18953546 -207.90626227 21.29003608 -191 20 C-192.28429906 13.81612829 -197.12930289 10.68257048 -202 7 C-210.11209175 1.9533524 -239.95178884 -12.04821116 -249 -3 Z M-249 35 C-249.43709055 37.09499757 -249.43709055 37.09499757 -249.34057617 39.54150391 C-249.34034958 40.48232819 -249.34012299 41.42315247 -249.33988953 42.39248657 C-249.32440567 43.41023163 -249.30892181 44.42797668 -249.29296875 45.4765625 C-249.28872391 46.51694672 -249.28447906 47.55733093 -249.28010559 48.62924194 C-249.26327482 51.96142147 -249.22561422 55.29300241 -249.1875 58.625 C-249.17245887 60.88019962 -249.15876947 63.13540869 -249.14648438 65.390625 C-249.11335699 70.92728855 -249.0631142 76.46360152 -249 82 C-242.61288358 81.03267076 -242.61288358 81.03267076 -237 78 C-235.06459311 74.57271697 -233.80037712 70.95676791 -232.5 67.25 C-231.72844386 65.16124426 -230.95630755 63.07270275 -230.18359375 60.984375 C-229.81347168 59.96279297 -229.44334961 58.94121094 -229.06201172 57.88867188 C-227.65228175 54.05420635 -226.11969799 50.27640273 -224.5625 46.5 C-222.73296333 42.03822396 -221.26114819 37.64571798 -220 33 C-218.68 32.67 -217.36 32.34 -216 32 C-217.60665645 39.2223033 -220.11939004 45.84365311 -223.15478516 52.56640625 C-226.75947303 60.58441656 -229.87249149 68.78672537 -233 77 C-225.11798818 74.85838345 -217.2431541 72.69197967 -209.375 70.5 C-208.30765625 70.20480469 -207.2403125 69.90960938 -206.140625 69.60546875 C-189.57334744 65.17593915 -189.57334744 65.17593915 -176 55 C-174.84396087 51.60768847 -175.78456186 49.28416345 -177 46 C-177.52013672 44.31777344 -177.52013672 44.31777344 -178.05078125 42.6015625 C-180.29653432 35.73994562 -182.76049588 28.23950412 -188 23 C-206.19864227 21.09911442 -233.52863542 24.68575694 -249 35 Z M-177 60 C-177.33 60.66 -177.66 61.32 -178 62 C-177.01 61.67 -176.02 61.34 -175 61 C-175.66 60.67 -176.32 60.34 -177 60 Z M-199.5625 74.6875 C-213.2252392 82.8076701 -227.08427528 89.70337005 -241.61621094 96.12036133 C-242.84065918 96.66213013 -242.84065918 96.66213013 -244.08984375 97.21484375 C-244.82066162 97.53573975 -245.55147949 97.85663574 -246.30444336 98.18725586 C-247.9909524 98.88028774 -247.9909524 98.88028774 -249 100 C-249.28104388 103.36656497 -249.23189337 106.74811334 -249.25 110.125 C-249.270625 111.0634375 -249.29125 112.001875 -249.3125 112.96875 C-249.34484352 118.74206805 -248.95755092 122.97749235 -246 128 C-240.92230575 131.42943748 -234.30218887 130.32759184 -228.4375 130.3125 C-226.59961914 130.33666992 -226.59961914 130.33666992 -224.72460938 130.36132812 C-212.5089385 130.36783621 -200.09066414 128.13835812 -190.5859375 119.91015625 C-180.36347478 109.36289956 -177.05994874 97.07631639 -175 83 C-177.52475462 81.73762269 -179.31200466 81.90143596 -182.125 81.9375 C-183.49011719 81.95103516 -183.49011719 81.95103516 -184.8828125 81.96484375 C-185.93082031 81.98224609 -185.93082031 81.98224609 -187 82 C-187.08226668 78.95613276 -186.97608217 76.92824652 -186 74 C-184.54182203 73.83197949 -183.0834516 73.66562857 -181.625 73.5 C-180.81289062 73.4071875 -180.00078125 73.314375 -179.1640625 73.21875 C-177 73 -177 73 -175 73 C-175 70.36 -175 67.72 -175 65 C-184.36188982 65 -191.76946269 69.95743807 -199.5625 74.6875 Z M-134.375 70.0625 C-138.18012769 74.00295649 -142 77.99046778 -142 83.75 C-140.75153635 86.55904322 -139.61600225 87.40281495 -137 89 C-134.19116363 89.57229868 -134.19116363 89.57229868 -131.25 89.6875 C-129.77273437 89.78611328 -129.77273437 89.78611328 -128.265625 89.88671875 C-127.51796875 89.92410156 -126.7703125 89.96148437 -126 90 C-126.13277344 89.26136719 -126.26554688 88.52273437 -126.40234375 87.76171875 C-127.60520339 80.85186083 -128.47684141 73.9938043 -129 67 C-131.78687566 67 -132.421999 68.12229158 -134.375 70.0625 Z M-210.62890625 72.765625 C-211.25981674 72.95968933 -211.89072723 73.15375366 -212.54075623 73.35369873 C-213.87109588 73.76579463 -215.19986024 74.18300622 -216.52709961 74.60498047 C-218.55479786 75.24755919 -220.58814921 75.86893249 -222.62304688 76.48828125 C-223.91705941 76.89197239 -225.21069319 77.29688006 -226.50390625 77.703125 C-227.67767822 78.07083008 -228.8514502 78.43853516 -230.06079102 78.81738281 C-233.66017626 80.26562786 -235.32682019 81.55113975 -236.94921875 85.04296875 C-237.19285156 85.75066406 -237.43648437 86.45835938 -237.6875 87.1875 C-237.93886719 87.90292969 -238.19023437 88.61835937 -238.44921875 89.35546875 C-238.63097656 89.89816406 -238.81273437 90.44085938 -239 91 C-234.50623401 90.37515254 -230.80388621 88.61159619 -226.8125 86.5625 C-225.78866211 86.04429688 -225.78866211 86.04429688 -224.74414062 85.515625 C-216.37385038 81.23596441 -208.18425907 76.62259077 -200 72 C-203.92722366 70.48836657 -206.70604854 71.55296351 -210.62890625 72.765625 Z M-183 78 C-183 78.99 -183 79.98 -183 81 C-180.05908413 80.81584568 -180.05908413 80.81584568 -177 80 C-175.56362302 78.04836882 -175.56362302 78.04836882 -175 76 C-177.63576683 76 -180.48513411 77.26840265 -183 78 Z M-245.0625 84.5 C-246.361875 84.995 -247.66125 85.49 -249 86 C-249 89.3 -249 92.6 -249 96 C-246.00689577 95.84179103 -246.00689577 95.84179103 -243 94 C-241.5248147 90.42821434 -240.72228895 86.78884905 -240 83 C-241.78881237 83 -243.4083068 83.86983116 -245.0625 84.5 Z M-277.1875 100.5 C-278.115625 101.325 -279.04375 102.15 -280 103 C-279.67 103.99 -279.34 104.98 -279 106 C-274.65815798 105.81535634 -274.65815798 105.81535634 -271 104 C-270.95919217 102.00041636 -270.95745644 99.99954746 -271 98 C-274.3866371 98 -274.77669287 98.35706033 -277.1875 100.5 Z " fill="#ECD0D8" transform="translate(381,23)"/>
<path d="M0 0 C0 0.99 0 1.98 0 3 C-0.66 3 -1.32 3 -2 3 C-2 18.84 -2 34.68 -2 51 C-1.01 51.33 -0.02 51.66 1 52 C0.505 52.99 0.505 52.99 0 54 C-0.66 54 -1.32 54 -2 54 C-2 57.63 -2 61.26 -2 65 C-1.34 65 -0.68 65 0 65 C-0.01047363 65.69561035 -0.02094727 66.3912207 -0.03173828 67.10791016 C-0.07348637 70.28023623 -0.09938585 73.45250431 -0.125 76.625 C-0.14175781 77.71941406 -0.15851563 78.81382812 -0.17578125 79.94140625 C-0.36441514 87.71666289 -0.36441514 87.71666289 2 95 C7.11464791 98.4050984 13.67397502 97.32765318 19.5625 97.3125 C21.40038086 97.33666992 21.40038086 97.33666992 23.27539062 97.36132812 C35.33909223 97.36775524 47.73097318 95.19357365 57.19140625 87.1328125 C66.99188367 76.97899718 70.02468425 64.49799096 72 51 C69.36 51 66.72 51 64 51 C64 50.34 64 49.68 64 49 C65.093125 48.690625 66.18625 48.38125 67.3125 48.0625 C69.55407994 47.41662103 71.7869351 46.7376883 74 46 C73.90460938 44.94039062 73.80921875 43.88078125 73.7109375 42.7890625 C73.59839894 41.40108691 73.48645035 40.01306339 73.375 38.625 C73.31054688 37.92632812 73.24609375 37.22765625 73.1796875 36.5078125 C73.03880261 34.67630889 73.01238341 32.83687252 73 31 C75 29 75 29 78.125 28.875 C79.07375 28.91625 80.0225 28.9575 81 29 C81.18175781 28.36191406 81.36351562 27.72382812 81.55078125 27.06640625 C81.80214844 26.24011719 82.05351562 25.41382812 82.3125 24.5625 C82.55613281 23.73878906 82.79976563 22.91507813 83.05078125 22.06640625 C83.36402344 21.38449219 83.67726563 20.70257813 84 20 C84.99 19.67 85.98 19.34 87 19 C86.125 24.75 86.125 24.75 85 27 C85.69867188 26.98839844 86.39734375 26.97679688 87.1171875 26.96484375 C88.48230469 26.95130859 88.48230469 26.95130859 89.875 26.9375 C91.23238281 26.92009766 91.23238281 26.92009766 92.6171875 26.90234375 C95 27 95 27 97 28 C98.08428601 47.46895771 93.15475901 65.41983867 80.3203125 80.62109375 C67.02651186 94.25059643 48.86063318 102.15782448 29.84960938 102.45410156 C27.01342128 102.46796463 24.17957986 102.43251963 21.34375 102.390625 C19.81962844 102.38313623 18.29549706 102.37745583 16.7713623 102.37347412 C12.81915241 102.35842445 8.86755956 102.3193303 4.91558838 102.2746582 C0.85917501 102.23325054 -3.19734108 102.21536747 -7.25390625 102.1953125 C-15.16954953 102.15280827 -23.08469737 102.08481918 -31 102 C-30.2421875 98.21875 -30.2421875 98.21875 -28.0625 96.25 C-23.30638769 91.06151385 -23.55847069 82.70164829 -23 76 C-26.96 76 -30.92 76 -35 76 C-35.66 74.68 -36.32 73.36 -37 72 C-35.69589604 68.76134923 -34.73463261 67.34143148 -31.54370117 65.85839844 C-30.21302612 65.36388184 -30.21302612 65.36388184 -28.85546875 64.859375 C-26.05812052 63.44880784 -26.05812052 63.44880784 -24 61 C-22.67019066 54.72899797 -23.01386676 48.62124138 -23.3125 42.25 C-23.35411655 40.51182082 -23.39127249 38.77352875 -23.42382812 37.03515625 C-23.18992405 29.28175048 -23.18992405 29.28175048 -25 22 C-25.23076923 16.46153846 -25.23076923 16.46153846 -24 14 C-23.34 14 -22.68 14 -22 14 C-22 13.34 -22 12.68 -22 12 C-7.87012987 0 -7.87012987 0 0 0 Z M-29.1875 68.5 C-30.115625 69.325 -31.04375 70.15 -32 71 C-31.67 71.99 -31.34 72.98 -31 74 C-26.65815798 73.81535634 -26.65815798 73.81535634 -23 72 C-22.95919217 70.00041636 -22.95745644 67.99954746 -23 66 C-26.3866371 66 -26.77669287 66.35706033 -29.1875 68.5 Z " fill="#F2D4DD" transform="translate(133,55)"/>
<path d="M0 0 C0.02578125 0.86238281 0.0515625 1.72476563 0.078125 2.61328125 C0.61766819 14.22572224 2.31148973 25.93446918 6 37 C11.69051363 36.4618629 17.34865884 35.8599867 23 35 C23 35.99 23 36.98 23 38 C21.0636296 38.50435694 19.12585854 39.00333874 17.1875 39.5 C16.10855469 39.7784375 15.02960938 40.056875 13.91796875 40.34375 C11 41 11 41 8 41 C12.58450694 55.89964756 23.11517286 67.9197968 36.64404297 75.38574219 C49.21478906 81.91783081 64.9058327 83.5435102 78.5625 79.375 C94.03074007 73.26461787 100.8634174 62.23609204 108 48 C109.32 48 110.64 48 112 48 C111.64474524 51.93445602 111.27199102 55.86682218 110.88305664 59.7980957 C110.68946548 61.79225379 110.50969941 63.78773822 110.33007812 65.78320312 C110.20439453 67.03681641 110.07871094 68.29042969 109.94921875 69.58203125 C109.83924561 70.73936768 109.72927246 71.8967041 109.6159668 73.08911133 C108.95993369 76.18934232 108.54144559 77.19112351 106 79 C104.19750977 79.85961914 104.19750977 79.85961914 102.19140625 80.53515625 C101.44310547 80.78716797 100.69480469 81.03917969 99.92382812 81.29882812 C98.7549707 81.6768457 98.7549707 81.6768457 97.5625 82.0625 C96.81806641 82.31837891 96.07363281 82.57425781 95.30664062 82.83789062 C83.87753213 86.60881785 72.58366246 87.37310593 60.64770508 87.37060547 C58.33273716 87.37496192 56.01970908 87.41136666 53.70507812 87.44921875 C40.19641513 87.55260732 26.52483745 85.78502265 14.5 79.1875 C13.84185303 78.84058105 13.18370605 78.49366211 12.50561523 78.13623047 C0.03192721 71.39061762 -10.90728541 61.52752313 -16 48 C-16.37116673 46.3413487 -16.71528656 44.67565723 -17 43 C-19.97 43 -22.94 43 -26 43 C-26.33 42.34 -26.66 41.68 -27 41 C-24.03 41 -21.06 41 -18 41 C-18.2165625 40.28457031 -18.433125 39.56914063 -18.65625 38.83203125 C-20.73323268 31.39912564 -22.83916653 23.66155471 -21 16 C-18.21145571 12.19534019 -14.84810765 9.68169884 -11 7 C-10.05769531 6.30519531 -9.11539062 5.61039062 -8.14453125 4.89453125 C-1.3742515 0 -1.3742515 0 0 0 Z " fill="#ECCFD7" transform="translate(273,72)"/>
<path d="M0 0 C0 0.99 0 1.98 0 3 C-0.66 3 -1.32 3 -2 3 C-2 18.84 -2 34.68 -2 51 C-0.515 51.495 -0.515 51.495 1 52 C0.67 52.66 0.34 53.32 0 54 C-0.66 54 -1.32 54 -2 54 C-2 57.63 -2 61.26 -2 65 C-1.34 65 -0.68 65 0 65 C0 65.99 0 66.98 0 68 C-3.39165005 69.17908109 -6.78892712 70.34103966 -10.1875 71.5 C-11.14720703 71.83386719 -12.10691406 72.16773437 -13.09570312 72.51171875 C-14.02705078 72.82753906 -14.95839844 73.14335937 -15.91796875 73.46875 C-16.77156982 73.76201172 -17.6251709 74.05527344 -18.50463867 74.35742188 C-21.10411957 75.02681173 -23.32764529 75.11719018 -26 75 C-25.34 74.01 -24.68 73.02 -24 72 C-23.60986284 70.0103005 -23.26797351 68.00980131 -23 66 C-23.99 66 -24.98 66 -26 66 C-25.67475342 65.3505542 -25.34950684 64.7011084 -25.0144043 64.03198242 C-23.71801443 60.15716514 -23.73221515 56.52472188 -23.76953125 52.48828125 C-23.76998947 51.67884567 -23.77044769 50.8694101 -23.7709198 50.03544617 C-23.77393084 48.33180263 -23.78178264 46.62816157 -23.79418945 44.92456055 C-23.81251096 42.3109366 -23.81469852 39.69766602 -23.81445312 37.08398438 C-23.81936637 35.42708026 -23.82519384 33.77017854 -23.83203125 32.11328125 C-23.83314407 31.32995926 -23.8342569 30.54663727 -23.83540344 29.73957825 C-23.78382655 25.7396304 -23.78382655 25.7396304 -25 22 C-25.23076923 16.46153846 -25.23076923 16.46153846 -24 14 C-23.34 14 -22.68 14 -22 14 C-22 13.34 -22 12.68 -22 12 C-7.87012987 0 -7.87012987 0 0 0 Z " fill="#F9DBE4" transform="translate(133,55)"/>
<path d="M0 0 C0.99 0 1.98 0 3 0 C2.125 6.75 2.125 6.75 1 9 C3.64 9 6.28 9 9 9 C8.67 9.66 8.34 10.32 8 11 C6.783125 10.9175 5.56625 10.835 4.3125 10.75 C2.06924171 10.81022505 2.06924171 10.81022505 0 12 C-3.54326363 17.81458646 -5.88359428 24.2759012 -7 31 C-3.53514293 30.37967524 -3.53514293 30.37967524 0 29 C1.24267038 26.81571431 1.24267038 26.81571431 2 24 C3.57698279 21.27566114 5.28441964 18.6388507 7 16 C7.99 16.33 8.98 16.66 10 17 C9.57074219 17.84304687 9.57074219 17.84304687 9.1328125 18.703125 C7.98584069 21.02870923 6.92160206 23.37770201 5.875 25.75 C5.52179688 26.54921875 5.16859375 27.3484375 4.8046875 28.171875 C4.40636719 29.07679687 4.40636719 29.07679687 4 30 C6.4288432 29.03302214 7.74596903 28.41064626 9.14086914 26.15576172 C9.43598389 25.42115723 9.73109863 24.68655273 10.03515625 23.9296875 C10.36966797 23.115 10.70417969 22.3003125 11.04882812 21.4609375 C11.5505957 20.18089844 11.5505957 20.18089844 12.0625 18.875 C12.40087891 18.04484375 12.73925781 17.2146875 13.08789062 16.359375 C14.39326257 13.13760595 15.68442752 9.92402674 16.80810547 6.63378906 C17.46175607 4.72769798 18.2222863 2.85892542 19 1 C19.99 0.67 20.98 0.34 22 0 C23.48373326 4.22167199 22.53669751 6.76300228 20.69726562 10.73632812 C20.19743164 11.7640332 20.19743164 11.7640332 19.6875 12.8125 C17.12991758 18.16855938 15.28158847 23.19056596 14 29 C15.95794891 28.68385731 15.95794891 28.68385731 18 28 C19.60981143 25.48920281 19.60981143 25.48920281 20.875 22.3125 C21.3803125 21.14976563 21.885625 19.98703125 22.40625 18.7890625 C22.93761115 17.52608842 23.46885789 16.26306621 24 15 C24.57143045 13.67383778 25.14435364 12.3483178 25.71875 11.0234375 C27.16124506 7.68876778 28.5851371 4.34650197 30 1 C31.32 1 32.64 1 34 1 C33.61328125 2.08796875 33.2265625 3.1759375 32.828125 4.296875 C29.79910184 12.83755157 26.82091907 21.38790002 24 30 C26.47882049 29.69184539 26.47882049 29.69184539 29 29 C29.4640625 27.7934375 29.4640625 27.7934375 29.9375 26.5625 C31 24 31 24 33.8125 22.625 C37.00057686 21.99988689 38.91495851 22.09263486 42 23 C42.75 24.6875 42.75 24.6875 43 27 C41.21482174 29.64698845 39.87978754 31.56010623 37 33 C35.60490718 33.04546127 34.20780435 33.0384249 32.8125 33 C29.79281485 32.95630681 27.20458317 33.11735658 24.1875 33.5625 C21.1602653 33.9780028 19.84279001 33.73362323 17 33 C16.01 33.165 15.02 33.33 14 33.5 C10.98205876 34.00299021 9.85507642 33.75575552 7 33 C1.85182812 32.61629743 1.85182812 32.61629743 -3 34 C-5.3329866 34.04022391 -7.66706666 34.04320247 -10 34 C-10.433125 33.0409375 -10.433125 33.0409375 -10.875 32.0625 C-11.82823451 29.84793921 -11.82823451 29.84793921 -14 29 C-13.67 30.98 -13.34 32.96 -13 35 C-14.90401138 36.90401138 -16.33425686 37.93520439 -19.046875 38.19921875 C-21.03233273 38.1886578 -23.0169914 38.09915043 -25 38 C-26.125 34.25 -26.125 34.25 -25 32 C-30.445 32.495 -30.445 32.495 -36 33 C-35.76785426 28.97614056 -35.60783179 26.67934141 -32.875 23.625 C-29.53422786 21.73673749 -26.80157771 21.29816296 -23 21 C-22.17361624 23.89234315 -22 25.88742431 -22 29 C-19.64862426 27.11031214 -19.64862426 27.11031214 -19.9375 23.9375 C-19.958125 22.968125 -19.97875 21.99875 -20 21 C-19 20 -19 20 -15.9375 19.9375 C-14.4834375 19.9684375 -14.4834375 19.9684375 -13 20 C-12.67 20.99 -12.34 21.98 -12 23 C-13.32 23 -14.64 23 -16 23 C-15.67 23.99 -15.34 24.98 -15 26 C-13.07956927 26.0461308 -13.07956927 26.0461308 -11 25 C-9.71795666 22.6211627 -8.70881254 20.43970722 -7.75 17.9375 C-7.481875 17.27427734 -7.21375 16.61105469 -6.9375 15.92773438 C-6.27794262 14.29061873 -5.63714831 12.64596647 -5 11 C-6.65 11 -8.3 11 -10 11 C-10 10.34 -10 9.68 -10 9 C-8.906875 8.814375 -7.81375 8.62875 -6.6875 8.4375 C-3.0509502 7.42483472 -3.0509502 7.42483472 -1.8671875 5.30859375 C-0.94073788 3.16349857 -0.94073788 3.16349857 0 0 Z M34.375 26.375 C32.78468592 27.89968321 32.78468592 27.89968321 33 30 C33.99 30 34.98 30 36 30 C36.66 28.35 37.32 26.7 38 25 C35.89968321 24.78468592 35.89968321 24.78468592 34.375 26.375 Z M-21 33 C-21 33.66 -21 34.32 -21 35 C-19.68 34.67 -18.36 34.34 -17 34 C-17 33.34 -17 32.68 -17 32 C-19.0745356 31.8509288 -19.0745356 31.8509288 -21 33 Z " fill="#C7C7C7" transform="translate(331,73)"/>
<path d="M0 0 C0.02578125 0.86238281 0.0515625 1.72476563 0.078125 2.61328125 C0.61766819 14.22572224 2.31148973 25.93446918 6 37 C11.69051363 36.4618629 17.34865884 35.8599867 23 35 C23 35.99 23 36.98 23 38 C20.14656123 38.64919506 17.29232245 39.29444179 14.4375 39.9375 C13.23770508 40.21110352 13.23770508 40.21110352 12.01367188 40.49023438 C3.08630086 42.49433807 -5.29440628 43.13304019 -14.4375 43.0625 C-15.55060547 43.05798828 -16.66371094 43.05347656 -17.81054688 43.04882812 C-20.54042101 43.03711193 -23.27018174 43.02070699 -26 43 C-26.33 42.34 -26.66 41.68 -27 41 C-24.03 41 -21.06 41 -18 41 C-18.2165625 40.28457031 -18.433125 39.56914063 -18.65625 38.83203125 C-20.73323268 31.39912564 -22.83916653 23.66155471 -21 16 C-18.21145571 12.19534019 -14.84810765 9.68169884 -11 7 C-10.05769531 6.30519531 -9.11539062 5.61039062 -8.14453125 4.89453125 C-1.3742515 0 -1.3742515 0 0 0 Z " fill="#FADCE5" transform="translate(273,72)"/>
<path d="M0 0 C1.32 0 2.64 0 4 0 C3.54392424 6.61961386 2.24461736 11.55330694 -0.625 17.5 C-1.34850385 19.05889994 -2.06980093 20.61882567 -2.7890625 22.1796875 C-3.15547852 22.96956055 -3.52189453 23.75943359 -3.89941406 24.57324219 C-5.70218436 28.54829471 -7.3541719 32.58297667 -9 36.625 C-9.30244629 37.36556641 -9.60489258 38.10613281 -9.91650391 38.86914062 C-10.61323476 40.57851897 -11.30698242 42.28911285 -12 44 C-7.82274955 42.79292106 -3.64593497 41.58434767 0.53051758 40.37451172 C1.94511825 39.96494199 3.35982811 39.55574916 4.7746582 39.14697266 C6.83314924 38.55215132 8.89127768 37.95609617 10.94921875 37.359375 C11.62596649 37.16339722 12.30271423 36.96741943 12.99996948 36.76550293 C18.50556331 35.16297995 23.97620513 33.4582046 29.43676758 31.70800781 C32 31 32 31 35 31 C34.54625 31.4125 34.0925 31.825 33.625 32.25 C31.91522747 33.86774044 31.91522747 33.86774044 31.3125 35.84765625 C29.38715138 39.00499879 26.51228242 40.41040742 23.375 42.1875 C22.70621826 42.57550781 22.03743652 42.96351562 21.34838867 43.36328125 C19.93833725 44.17851088 18.52542544 44.98881077 17.10986328 45.79443359 C15.11316564 46.93533766 13.13167829 48.0988366 11.15234375 49.26953125 C3.76753689 53.58857293 -3.76732661 57.41031109 -11.5625 60.9375 C-12.39547607 61.31519531 -13.22845215 61.69289062 -14.08666992 62.08203125 C-18.66790744 64.1105279 -23.14579392 65.75549884 -28 67 C-28 66.34 -28 65.68 -28 65 C-28.66 65 -29.32 65 -30 65 C-30 61.37 -30 57.74 -30 54 C-29.67 54 -29.34 54 -29 54 C-29 57.3 -29 60.6 -29 64 C-27.02 63.34 -25.04 62.68 -23 62 C-22.855625 61.0925 -22.71125 60.185 -22.5625 59.25 C-22.13590527 56.78523044 -21.64925779 54.41152893 -21 52 C-23.31 52.66 -25.62 53.32 -28 54 C-28 53.34 -28 52.68 -28 52 C-28.66 51.67 -29.32 51.34 -30 51 C-30 35.16 -30 19.32 -30 3 C-29.67 3 -29.34 3 -29 3 C-29 18.51 -29 34.02 -29 50 C-18.09126321 47.36642332 -18.09126321 47.36642332 -15.16796875 41.10546875 C-14.46587208 39.1473474 -13.80719677 37.17323786 -13.1875 35.1875 C-12.46015076 33.10659063 -11.73228548 31.02586157 -11.00390625 28.9453125 C-10.66504395 27.92985352 -10.32618164 26.91439453 -9.97705078 25.86816406 C-8.6717163 22.03631262 -7.17019012 18.30245685 -5.625 14.5625 C-3.68363989 9.73067039 -1.79552896 4.88782884 0 0 Z M9.37109375 40.765625 C8.74018326 40.95968933 8.10927277 41.15375366 7.45924377 41.35369873 C6.12890412 41.76579463 4.80013976 42.18300622 3.47290039 42.60498047 C1.44520214 43.24755919 -0.58814921 43.86893249 -2.62304688 44.48828125 C-3.91705941 44.89197239 -5.21069319 45.29688006 -6.50390625 45.703125 C-7.67767822 46.07083008 -8.8514502 46.43853516 -10.06079102 46.81738281 C-13.66017626 48.26562786 -15.32682019 49.55113975 -16.94921875 53.04296875 C-17.19285156 53.75066406 -17.43648437 54.45835938 -17.6875 55.1875 C-17.93886719 55.90292969 -18.19023437 56.61835937 -18.44921875 57.35546875 C-18.63097656 57.89816406 -18.81273437 58.44085938 -19 59 C-14.50623401 58.37515254 -10.80388621 56.61159619 -6.8125 54.5625 C-5.78866211 54.04429688 -5.78866211 54.04429688 -4.74414062 53.515625 C3.62614962 49.23596441 11.81574093 44.62259077 20 40 C16.07277634 38.48836657 13.29395146 39.55296351 9.37109375 40.765625 Z " fill="#CCCCCC" transform="translate(161,55)"/>
<path d="M0 0 C8.62093808 0.13929702 18.13251123 2.35948955 24.6875 8.25 C25.0175 9.24 25.3475 10.23 25.6875 11.25 C26.3475 11.25 27.0075 11.25 27.6875 11.25 C27.41449147 17.39269193 26.66231667 21.33377938 22.6875 26.25 C21.90826172 27.22453125 21.90826172 27.22453125 21.11328125 28.21875 C17.36031796 32.7391732 13.54978079 35.97731101 8.6875 39.25 C7.6678185 40.22992328 6.66223305 41.22535592 5.6875 42.25 C6.6775 42.58 7.6675 42.91 8.6875 43.25 C8.6875 43.91 8.6875 44.57 8.6875 45.25 C7.91664063 45.45496094 7.14578125 45.65992188 6.3515625 45.87109375 C5.34867188 46.14050781 4.34578125 46.40992188 3.3125 46.6875 C2.31476563 46.95433594 1.31703125 47.22117188 0.2890625 47.49609375 C-2.26667701 48.15184356 -2.26667701 48.15184356 -4.3125 49.25 C-3.82253103 45.00360227 -1.24868325 42.15511253 1.6875 39.25 C3.63053088 37.76307966 5.58828998 36.51928978 7.6875 35.25 C7.14151865 24.69436064 3.40981289 8.97231289 -4.3125 1.25 C-3.3125 0.25 -3.3125 0.25 0 0 Z " fill="#F7D9E2" transform="translate(196.3125,42.75)"/>
<path d="M0 0 C2.5380006 1.83954283 3.80680117 2.88422252 4.34765625 6.0078125 C3.53045912 12.0752213 1.83531658 18.11868799 -2 23 C-4.671875 23.78125 -4.671875 23.78125 -7 24 C-6.57492136 20.59937086 -5.56901537 18.08824699 -3.9375 15.125 C-1.85394493 11.16850192 -1.63142743 8.42287078 -2 4 C-7.40549558 2.89369391 -11.45606837 3.21966292 -16.75 4.875 C-17.83124146 5.20250244 -17.83124146 5.20250244 -18.93432617 5.53662109 C-27.98962005 8.43129056 -36.62588976 12.52318328 -45 17 C-45.82371094 17.42667969 -46.64742188 17.85335937 -47.49609375 18.29296875 C-49.91253177 21.03578282 -49.67834643 24.19927376 -49.75 27.6875 C-49.79447266 28.7403418 -49.79447266 28.7403418 -49.83984375 29.81445312 C-49.91037033 31.54235424 -49.95747068 33.2711832 -50 35 C-50.33 35 -50.66 35 -51 35 C-51.33 30.38 -51.66 25.76 -52 21 C-54.58946596 22.88790135 -57.17143753 24.78480641 -59.75 26.6875 C-60.47960937 27.21794922 -61.20921875 27.74839844 -61.9609375 28.29492188 C-65.92577496 31.23250599 -69.02118457 34.02153705 -72 38 C-73.3052874 39.15742281 -74.63826605 40.28454898 -76 41.375 C-79.78731049 44.63137911 -82.03607026 47.38903453 -84 52 C-84.11338288 54.77810134 -84.11338288 54.77810134 -83 57 C-80.08235 58.9451 -78.37462715 59.45276317 -75 60 C-75.66 60.99 -76.32 61.98 -77 63 C-82.22289724 62.590361 -85.34664603 61.86825715 -89 58 C-90.55665392 54.40023781 -90.01584046 53.04248122 -88.625 49.3125 C-86.02649494 44.01554738 -86.02649494 44.01554738 -83.75 42.6796875 C-80.6883854 40.80966722 -78.49859621 38.69386923 -76 36.125 C-75.175 35.28195313 -74.35 34.43890625 -73.5 33.5703125 C-71.8288311 31.85214198 -70.15826119 30.13338866 -68.48828125 28.4140625 C-56.54706727 16.82902287 -40.38624576 8.9338797 -25 3 C-24.15308594 2.6596875 -23.30617188 2.319375 -22.43359375 1.96875 C-15.34868361 -0.55240419 -7.42531119 -1.10942885 0 0 Z " fill="#DBD9DA" transform="translate(324,52)"/>
<path d="M0 0 C0 0.99 0 1.98 0 3 C-0.66 3 -1.32 3 -2 3 C-2 10.92 -2 18.84 -2 27 C-16.93069307 27.57425743 -16.93069307 27.57425743 -24 23 C-25 22 -25 22 -25.125 19.0625 C-25 16 -25 16 -24 14 C-23.34 14 -22.68 14 -22 14 C-22 13.34 -22 12.68 -22 12 C-7.87012987 0 -7.87012987 0 0 0 Z " fill="#FFE0E9" transform="translate(133,55)"/>
<path d="M0 0 C0.99 0 1.98 0 3 0 C2.125 6.75 2.125 6.75 1 9 C3.64 9 6.28 9 9 9 C8.67 9.66 8.34 10.32 8 11 C6.783125 10.9175 5.56625 10.835 4.3125 10.75 C2.06924171 10.81022505 2.06924171 10.81022505 0 12 C-3.54326363 17.81458646 -5.88359428 24.2759012 -7 31 C-5.35 30.67 -3.7 30.34 -2 30 C-1.505 31.485 -1.505 31.485 -1 33 C-3.95664519 34.4783226 -6.74229737 34.06032783 -10 34 C-10.433125 33.0409375 -10.433125 33.0409375 -10.875 32.0625 C-11.82823451 29.84793921 -11.82823451 29.84793921 -14 29 C-13.67 30.98 -13.34 32.96 -13 35 C-14.90401138 36.90401138 -16.33425686 37.93520439 -19.046875 38.19921875 C-21.03233273 38.1886578 -23.0169914 38.09915043 -25 38 C-26.125 34.25 -26.125 34.25 -25 32 C-30.445 32.495 -30.445 32.495 -36 33 C-35.76785426 28.97614056 -35.60783179 26.67934141 -32.875 23.625 C-29.53422786 21.73673749 -26.80157771 21.29816296 -23 21 C-22.17361624 23.89234315 -22 25.88742431 -22 29 C-19.64862426 27.11031214 -19.64862426 27.11031214 -19.9375 23.9375 C-19.958125 22.968125 -19.97875 21.99875 -20 21 C-19 20 -19 20 -15.9375 19.9375 C-14.4834375 19.9684375 -14.4834375 19.9684375 -13 20 C-12.67 20.99 -12.34 21.98 -12 23 C-13.32 23 -14.64 23 -16 23 C-15.67 23.99 -15.34 24.98 -15 26 C-13.07956927 26.0461308 -13.07956927 26.0461308 -11 25 C-9.71795666 22.6211627 -8.70881254 20.43970722 -7.75 17.9375 C-7.481875 17.27427734 -7.21375 16.61105469 -6.9375 15.92773438 C-6.27794262 14.29061873 -5.63714831 12.64596647 -5 11 C-6.65 11 -8.3 11 -10 11 C-10 10.34 -10 9.68 -10 9 C-8.906875 8.814375 -7.81375 8.62875 -6.6875 8.4375 C-3.0509502 7.42483472 -3.0509502 7.42483472 -1.8671875 5.30859375 C-0.94073788 3.16349857 -0.94073788 3.16349857 0 0 Z M-21 33 C-21 33.66 -21 34.32 -21 35 C-19.68 34.67 -18.36 34.34 -17 34 C-17 33.34 -17 32.68 -17 32 C-19.0745356 31.8509288 -19.0745356 31.8509288 -21 33 Z " fill="#D3D3D3" transform="translate(331,73)"/>
<path d="M0 0 C1.32 0 2.64 0 4 0 C3.54392424 6.61961386 2.24461736 11.55330694 -0.625 17.5 C-1.34850385 19.05889994 -2.06980093 20.61882567 -2.7890625 22.1796875 C-3.15547852 22.96956055 -3.52189453 23.75943359 -3.89941406 24.57324219 C-5.70218436 28.54829471 -7.3541719 32.58297667 -9 36.625 C-9.30244629 37.36556641 -9.60489258 38.10613281 -9.91650391 38.86914062 C-10.61323476 40.57851897 -11.30698242 42.28911285 -12 44 C-11.01 44 -10.02 44 -9 44 C-9 44.66 -9 45.32 -9 46 C-8.34 46.33 -7.68 46.66 -7 47 C-8.60875 47.495 -8.60875 47.495 -10.25 48 C-14.42651051 49.73668287 -15.63607628 52.32645329 -17.37109375 56.35546875 C-17.57863281 56.89816406 -17.78617188 57.44085938 -18 58 C-18.99 58 -19.98 58 -21 58 C-22.24546405 55.50907189 -21.7767578 54.58919267 -21 52 C-23.31 52.66 -25.62 53.32 -28 54 C-28 53.34 -28 52.68 -28 52 C-28.66 51.67 -29.32 51.34 -30 51 C-30 35.16 -30 19.32 -30 3 C-29.67 3 -29.34 3 -29 3 C-29 18.51 -29 34.02 -29 50 C-18.09126321 47.36642332 -18.09126321 47.36642332 -15.16796875 41.10546875 C-14.46587208 39.1473474 -13.80719677 37.17323786 -13.1875 35.1875 C-12.46015076 33.10659063 -11.73228548 31.02586157 -11.00390625 28.9453125 C-10.66504395 27.92985352 -10.32618164 26.91439453 -9.97705078 25.86816406 C-8.6717163 22.03631262 -7.17019012 18.30245685 -5.625 14.5625 C-3.68363989 9.73067039 -1.79552896 4.88782884 0 0 Z " fill="#C5C1C2" transform="translate(161,55)"/>
<path d="M0 0 C0 0.66 0 1.32 0 2 C-0.66 2 -1.32 2 -2 2 C-2 5.63 -2 9.26 -2 13 C-1.34 13 -0.68 13 0 13 C0 13.99 0 14.98 0 16 C-3.39165005 17.17908109 -6.78892712 18.34103966 -10.1875 19.5 C-11.14720703 19.83386719 -12.10691406 20.16773437 -13.09570312 20.51171875 C-14.02705078 20.82753906 -14.95839844 21.14335937 -15.91796875 21.46875 C-17.19837036 21.90864258 -17.19837036 21.90864258 -18.50463867 22.35742188 C-21.10411957 23.02681173 -23.32764529 23.11719018 -26 23 C-25.01 21.515 -25.01 21.515 -24 20 C-23.60986284 18.0103005 -23.26797351 16.00980131 -23 14 C-23.99 14 -24.98 14 -26 14 C-25.40889936 11.20570605 -24.70313748 9.47130083 -22.28955078 7.85351562 C-20.07559618 6.73855222 -17.84022009 5.72804661 -15.5625 4.75 C-14.78583984 4.399375 -14.00917969 4.04875 -13.20898438 3.6875 C-4.97593149 0 -4.97593149 0 0 0 Z " fill="#F8DBE3" transform="translate(133,107)"/>
<path d="M0 0 C9.56856079 -0.55203235 18.48890138 1.4959363 26.57421875 6.71875 C28 8 28 8 29 11 C29.66 11 30.32 11 31 11 C30.72699147 17.14269193 29.97481667 21.08377938 26 26 C25.22076172 26.97453125 25.22076172 26.97453125 24.42578125 27.96875 C20.67281796 32.4891732 16.86228079 35.72731101 12 39 C10.9803185 39.97992328 9.97473305 40.97535592 9 42 C9.99 42.33 10.98 42.66 12 43 C12 43.66 12 44.32 12 45 C11.22914063 45.20496094 10.45828125 45.40992188 9.6640625 45.62109375 C8.66117188 45.89050781 7.65828125 46.15992188 6.625 46.4375 C5.62726563 46.70433594 4.62953125 46.97117188 3.6015625 47.24609375 C1.04582299 47.90184356 1.04582299 47.90184356 -1 49 C-0.5074146 44.73092651 1.98692694 41.86138517 5 39 C6.56407476 37.88904289 8.14953055 36.80785306 9.75 35.75 C15.82894364 31.66699138 22.62532921 26.12401236 25 19 C25.27968154 16.06334381 25.48994156 13.84742509 25 11 C19.06014195 3.910492 7.56286518 3.23154575 -1 2 C-0.67 1.34 -0.34 0.68 0 0 Z " fill="#F3F1F1" transform="translate(193,43)"/>
<path d="M0 0 C2.52361298 1.84199404 3.80824376 2.89255383 4.34765625 6.0078125 C3.53045912 12.0752213 1.83531658 18.11868799 -2 23 C-4.671875 23.78125 -4.671875 23.78125 -7 24 C-6.57492136 20.59937086 -5.56901537 18.08824699 -3.9375 15.125 C-1.85394493 11.16850192 -1.63142743 8.42287078 -2 4 C-7.51079819 2.85191704 -11.61180976 3.29414696 -17 5 C-18.09453491 5.33197388 -18.09453491 5.33197388 -19.21118164 5.6706543 C-25.79652836 7.75581266 -31.94851655 10.56847344 -38.12109375 13.64453125 C-41 15 -41 15 -43 15 C-43 13.68 -43 12.36 -43 11 C-15.46873882 -2.55619499 -15.46873882 -2.55619499 0 0 Z " fill="#CCCCCC" transform="translate(324,52)"/>
<path d="M0 0 C0.66 0.33 1.32 0.66 2 1 C1.41608617 5.74339878 0.03914408 9.53508219 -1.9375 13.875 C-4.16149947 18.8589183 -5.92815446 23.6407723 -7 29 C-4.83125748 28.49396008 -3.00032373 28.00016187 -1 27 C-1 28.65 -1 30.3 -1 32 C-4.89507434 34.06925824 -7.63163336 33.99394688 -11.94140625 33.28515625 C-14.28316303 32.90712537 -14.28316303 32.90712537 -17.8125 33.0625 C-21 33 -21 33 -24 31 C-23.67 30.34 -23.34 29.68 -23 29 C-22.34 29 -21.68 29 -21 29 C-20.6596875 28.01 -20.6596875 28.01 -20.3125 27 C-18.59428642 23.07265467 -16.33225393 19.58739822 -14 16 C-13.01 16.33 -12.02 16.66 -11 17 C-11.28617187 17.56203125 -11.57234375 18.1240625 -11.8671875 18.703125 C-13.01415931 21.02870923 -14.07839794 23.37770201 -15.125 25.75 C-15.47820312 26.54921875 -15.83140625 27.3484375 -16.1953125 28.171875 C-16.46085937 28.77515625 -16.72640625 29.3784375 -17 30 C-14.5711568 29.03302214 -13.25403097 28.41064626 -11.85913086 26.15576172 C-11.56401611 25.42115723 -11.26890137 24.68655273 -10.96484375 23.9296875 C-10.63033203 23.115 -10.29582031 22.3003125 -9.95117188 21.4609375 C-9.61666016 20.60757813 -9.28214844 19.75421875 -8.9375 18.875 C-8.59912109 18.04484375 -8.26074219 17.2146875 -7.91210938 16.359375 C-6.3140834 12.41531089 -4.80398014 8.45484243 -3.37890625 4.4453125 C-2 1 -2 1 0 0 Z " fill="#B6B6B6" transform="translate(352,73)"/>
<path d="M0 0 C0.66 0 1.32 0 2 0 C1.125 5.75 1.125 5.75 0 8 C3.3 8 6.6 8 10 8 C9 10 9 10 7.375 10.625 C4.2339425 11.12095645 1.17398169 11.06103811 -2 11 C-2.18175781 11.61746094 -2.36351562 12.23492187 -2.55078125 12.87109375 C-4.25720447 18.62042737 -6.06654726 24.32305366 -8 30 C-7.16855469 29.58427734 -7.16855469 29.58427734 -6.3203125 29.16015625 C-3.546875 27.7734375 -0.7734375 26.38671875 2 25 C0.49653601 29.20969919 -2.14555814 30.91860139 -6 33 C-8.125 32.75 -8.125 32.75 -10 32 C-11.32 32 -12.64 32 -14 32 C-16.33333333 32 -18.66666667 32 -21 32 C-21 31.34 -21 30.68 -21 30 C-19.3603125 29.5359375 -19.3603125 29.5359375 -17.6875 29.0625 C-15.44592006 28.41662103 -13.2130649 27.7376883 -11 27 C-11.09539062 25.94039062 -11.19078125 24.88078125 -11.2890625 23.7890625 C-11.40160106 22.40108691 -11.51354965 21.01306339 -11.625 19.625 C-11.68945312 18.92632812 -11.75390625 18.22765625 -11.8203125 17.5078125 C-11.96119739 15.67630889 -11.98761659 13.83687252 -12 12 C-10 10 -10 10 -6.875 9.875 C-5.92625 9.91625 -4.9775 9.9575 -4 10 C-3.79503906 9.36191406 -3.59007812 8.72382812 -3.37890625 8.06640625 C-3.10949219 7.24011719 -2.84007812 6.41382812 -2.5625 5.5625 C-2.29566406 4.73878906 -2.02882812 3.91507812 -1.75390625 3.06640625 C-1 1 -1 1 0 0 Z " fill="#FAF7F8" transform="translate(218,74)"/>
<path d="M0 0 C3.96 0 7.92 0 12 0 C12 0.33 12 0.66 12 1 C8.7 1.33 5.4 1.66 2 2 C2 12.89 2 23.78 2 35 C4.97 34.071875 7.94 33.14375 11 32.1875 C28.94999279 26.80642677 44.28125021 25.72148252 63 27 C63 27.99 63 28.98 63 30 C62.67 29.67 62.34 29.34 62 29 C43.86518937 27.10578177 24.47353746 31.93044061 7.47265625 37.828125 C4 39 4 39 2 39 C2 38.34 2 37.68 2 37 C1.34 37 0.68 37 0 37 C0 24.79 0 12.58 0 0 Z " fill="#C2C2C2" transform="translate(131,18)"/>
<path d="M0 0 C0 0.99 0 1.98 0 3 C-1.16015625 3.52787109 -1.16015625 3.52787109 -2.34375 4.06640625 C-12.21116009 8.62619519 -12.21116009 8.62619519 -20 16 C-20.27182749 18.64418235 -20.27182749 18.64418235 -20 21 C-14.33778322 24.61752739 -8.59767367 24.69040043 -2 25 C-2 25.66 -2 26.32 -2 27 C-10.43364578 27.42642029 -16.78539462 27.66827407 -24 23 C-25 22 -25 22 -25.125 19.0625 C-25 16 -25 16 -24 14 C-23.34 14 -22.68 14 -22 14 C-22 13.34 -22 12.68 -22 12 C-7.87012987 0 -7.87012987 0 0 0 Z " fill="#F9F6F7" transform="translate(133,55)"/>
<path d="M0 0 C0.75 1.6875 0.75 1.6875 1 4 C-0.78517826 6.64698845 -2.12021246 8.56010623 -5 10 C-6.87379605 10.07033769 -8.75001102 10.0843022 -10.625 10.0625 C-11.62789063 10.05347656 -12.63078125 10.04445313 -13.6640625 10.03515625 C-14.43492187 10.02355469 -15.20578125 10.01195313 -16 10 C-16.33 9.01 -16.66 8.02 -17 7 C-16.38125 6.938125 -15.7625 6.87625 -15.125 6.8125 C-14.42375 6.544375 -13.7225 6.27625 -13 6 C-12.566875 4.7934375 -12.566875 4.7934375 -12.125 3.5625 C-11 1 -11 1 -8.1875 -0.375 C-4.99942314 -1.00011311 -3.08504149 -0.90736514 0 0 Z M-7.625 3.375 C-9.21531408 4.89968321 -9.21531408 4.89968321 -9 7 C-8.01 7 -7.02 7 -6 7 C-5.34 5.35 -4.68 3.7 -4 2 C-6.10031679 1.78468592 -6.10031679 1.78468592 -7.625 3.375 Z " fill="#B1B1B1" transform="translate(373,96)"/>
<path d="M0 0 C1.2039337 3.75399798 1.09877617 7.33217412 1.0625 11.25 C1.05347656 12.51328125 1.04445312 13.7765625 1.03515625 15.078125 C1.02355469 16.04234375 1.01195312 17.0065625 1 18 C-2 18 -5 18 -8 18 C-8.33 19.65 -8.66 21.3 -9 23 C-10.32 22.67 -11.64 22.34 -13 22 C-13.35205968 18.8314629 -13.28286337 17.40732325 -11.4375 14.75 C-8.29117242 12.49109815 -5.83069506 12.21281639 -2 12 C-1.34 12.33 -0.68 12.66 0 13 C-0.33 9.7 -0.66 6.4 -1 3 C-2.65 3 -4.3 3 -6 3 C-3 1 -3 1 0 0 Z " fill="#CBCBCB" transform="translate(206,83)"/>
<path d="M0 0 C1.10844919 3.32534757 0.84454356 5.62182575 0 9 C-0.66 7.68 -1.32 6.36 -2 5 C-3.32 6.32 -4.64 7.64 -6 9 C-5.67 9.66 -5.34 10.32 -5 11 C-7.70879335 12.35439668 -10.00933268 12.06501451 -13 12 C-12.63166144 5.61546499 -12.63166144 5.61546499 -9.5625 2.625 C-5.99414498 0.36214072 -4.2058419 -0.11068005 0 0 Z " fill="#CCCCCC" transform="translate(308,94)"/>
<path d="M0 0 C0.99 0 1.98 0 3 0 C2.125 6.75 2.125 6.75 1 9 C3.64 9 6.28 9 9 9 C8.67 9.66 8.34 10.32 8 11 C6.0509375 11.185625 6.0509375 11.185625 4.0625 11.375 C1.90606247 11.5364329 1.90606247 11.5364329 0 12 C-1.30065921 13.93383287 -1.30065921 13.93383287 -2 16 C-4.125 16.75 -4.125 16.75 -6 17 C-5.67 15.02 -5.34 13.04 -5 11 C-6.65 11 -8.3 11 -10 11 C-10 10.34 -10 9.68 -10 9 C-8.906875 8.814375 -7.81375 8.62875 -6.6875 8.4375 C-3.0509502 7.42483472 -3.0509502 7.42483472 -1.8671875 5.30859375 C-0.94073788 3.16349857 -0.94073788 3.16349857 0 0 Z " fill="#CFCFCF" transform="translate(331,73)"/>
<path d="M0 0 C0.66 0.33 1.32 0.66 2 1 C0.06143438 4.5863464 -1.7224587 6.62660802 -5 9 C-5 9.66 -5 10.32 -5 11 C-4.071875 10.95875 -3.14375 10.9175 -2.1875 10.875 C1 11 1 11 4 13 C4.1875 16.625 4.1875 16.625 4 20 C3.67 20 3.34 20 3 20 C3 18.02 3 16.04 3 14 C-0.96 14 -4.92 14 -9 14 C-9.66 12.68 -10.32 11.36 -11 10 C-9.32174255 5.32485424 -5.87798412 3.33193053 -1.83984375 0.8203125 C-1.23269531 0.54960938 -0.62554687 0.27890625 0 0 Z " fill="#D2D0D0" transform="translate(107,117)"/>
<path d="M0 0 C0.66 1.98 1.32 3.96 2 6 C-0.125 8.125 -0.125 8.125 -3 10 C-6.3125 9.25 -6.3125 9.25 -9 8 C-10.31668238 2.6135721 -10.31668238 2.6135721 -9 0.0625 C-5.88995237 -1.58971281 -3.34272722 -0.69377357 0 0 Z M-6 3 C-5.67 4.32 -5.34 5.64 -5 7 C-4.34 7 -3.68 7 -3 7 C-3 5.68 -3 4.36 -3 3 C-3.99 3 -4.98 3 -6 3 Z " fill="#919191" transform="translate(246,163)"/>
<path d="M0 0 C5.625 -0.25 5.625 -0.25 9 2 C9.40843923 4.71203652 9.13336867 7.2437142 9 10 C7.68 10 6.36 10 5 10 C5 9.34 5 8.68 5 8 C4.34 8 3.68 8 3 8 C3 8.66 3 9.32 3 10 C2.01 10 1.02 10 0 10 C-1.36952673 7.26094655 -1.12621361 5.02912668 -1 2 C-0.67 1.34 -0.34 0.68 0 0 Z " fill="#9E9E9E" transform="translate(251,162)"/>
<path d="M0 0 C0.99 0.33 1.98 0.66 3 1 C2.71382813 1.56203125 2.42765625 2.1240625 2.1328125 2.703125 C0.98584069 5.02870923 -0.07839794 7.37770201 -1.125 9.75 C-1.65480469 10.94882813 -1.65480469 10.94882813 -2.1953125 12.171875 C-2.46085937 12.77515625 -2.72640625 13.3784375 -3 14 C-1.68 14 -0.36 14 1 14 C0.67 14.99 0.34 15.98 0 17 C-6.625 17.25 -6.625 17.25 -10 15 C-9.67 14.34 -9.34 13.68 -9 13 C-8.34 13 -7.68 13 -7 13 C-6.6596875 12.01 -6.6596875 12.01 -6.3125 11 C-4.59428642 7.07265467 -2.33225393 3.58739822 0 0 Z " fill="#D7D7D7" transform="translate(338,89)"/>
<path d="M0 0 C-0.33 0.99 -0.66 1.98 -1 3 C-2.87011719 3.89135742 -2.87011719 3.89135742 -5.296875 4.60546875 C-6.1734375 4.86650391 -7.05 5.12753906 -7.953125 5.39648438 C-8.87609375 5.65751953 -9.7990625 5.91855469 -10.75 6.1875 C-11.6575 6.46013672 -12.565 6.73277344 -13.5 7.01367188 C-17.81712185 8.27283241 -21.47257719 9.15537246 -26 9 C-25 6 -25 6 -23.23754883 5.10864258 C-22.48497803 4.87298584 -21.73240723 4.6373291 -20.95703125 4.39453125 C-20.13009766 4.13349609 -19.30316406 3.87246094 -18.45117188 3.60351562 C-17.58041016 3.34248047 -16.70964844 3.08144531 -15.8125 2.8125 C-14.53536133 2.40354492 -14.53536133 2.40354492 -13.23242188 1.98632812 C-8.70118752 0.58805859 -4.79756299 -0.35333934 0 0 Z " fill="#D2D2D2" transform="translate(178,92)"/>
<path d="M0 0 C-0.33 0.66 -0.66 1.32 -1 2 C-8.68965889 4.34822422 -16.73045416 4.25168903 -24.6875 4.125 C-25.78255859 4.11597656 -26.87761719 4.10695313 -28.00585938 4.09765625 C-30.67081354 4.07438154 -33.33528134 4.04169135 -36 4 C-36.33 3.34 -36.66 2.68 -37 2 C-33.01669261 1.71153244 -29.03313331 1.42685352 -25.04931641 1.14550781 C-23.03664439 1.00260187 -21.02417891 0.85679651 -19.01171875 0.7109375 C-12.65925596 0.26403057 -6.36855229 -0.12997045 0 0 Z " fill="#FDFAFB" transform="translate(283,111)"/>
<path d="M0 0 C2.64 0 5.28 0 8 0 C9.42376318 2.84752635 8.51354329 4.91874027 8 8 C8.33 8.66 8.66 9.32 9 10 C6.03 10 3.06 10 0 10 C0 6.7 0 3.4 0 0 Z " fill="#949494" transform="translate(263,162)"/>
<path d="M0 0 C0 0.66 0 1.32 0 2 C-0.71655762 2.32798584 -1.43311523 2.65597168 -2.17138672 2.99389648 C-5.40608841 4.47473987 -8.64054712 5.95611324 -11.875 7.4375 C-13.00292969 7.95376953 -14.13085938 8.47003906 -15.29296875 9.00195312 C-16.90751953 9.74155273 -16.90751953 9.74155273 -18.5546875 10.49609375 C-19.54968262 10.95169678 -20.54467773 11.4072998 -21.56982422 11.87670898 C-23.0562852 12.56379025 -24.53530975 13.26765488 -26 14 C-25.40889936 11.20570605 -24.70313748 9.47130083 -22.28955078 7.85351562 C-20.07559618 6.73855222 -17.84022009 5.72804661 -15.5625 4.75 C-14.78583984 4.399375 -14.00917969 4.04875 -13.20898438 3.6875 C-4.97593149 0 -4.97593149 0 0 0 Z " fill="#FDFAFB" transform="translate(133,107)"/>
<path d="M0 0 C1.70736328 0.08507813 1.70736328 0.08507813 3.44921875 0.171875 C6.21696255 0.31142511 8.98351901 0.46260564 11.75 0.625 C11.75 1.615 11.75 2.605 11.75 3.625 C11.255 3.13 11.255 3.13 10.75 2.625 C1.98749767 2.04263895 -6.55837263 2.82509296 -15.20678711 4.17700195 C-20.77332431 4.94231616 -20.77332431 4.94231616 -23.48974609 3.1340332 C-24.07062988 2.63605225 -24.65151367 2.13807129 -25.25 1.625 C-16.6675568 -0.16640549 -8.73470147 -0.51562582 0 0 Z " fill="#919191" transform="translate(182.25,44.375)"/>
<path d="M0 0 C2.625 -0.1875 2.625 -0.1875 5 0 C7.42857143 6.28571429 7.42857143 6.28571429 6 10 C2.94736336 10.98120464 1.05263664 10.98120464 -2 10 C-1.7215625 9.1028125 -1.7215625 9.1028125 -1.4375 8.1875 C-0.77906313 5.83591238 -0.77906313 5.83591238 -2 3 C-1.34 2.01 -0.68 1.02 0 0 Z " fill="#AAAAAA" transform="translate(216,162)"/>
<path d="M0 0 C0 0.99 0 1.98 0 3 C-3.39165005 4.17908109 -6.78892712 5.34103966 -10.1875 6.5 C-11.14720703 6.83386719 -12.10691406 7.16773437 -13.09570312 7.51171875 C-14.02705078 7.82753906 -14.95839844 8.14335937 -15.91796875 8.46875 C-16.77156982 8.76201172 -17.6251709 9.05527344 -18.50463867 9.35742188 C-21.10411957 10.02681173 -23.32764529 10.11719018 -26 10 C-24.60319962 7.20639924 -23.10333703 7.10688169 -20.1953125 6.0546875 C-19.21949219 5.70019531 -18.24367188 5.34570312 -17.23828125 4.98046875 C-16.21089844 4.61566406 -15.18351562 4.25085938 -14.125 3.875 C-12.59552734 3.31619141 -12.59552734 3.31619141 -11.03515625 2.74609375 C-3.40041209 0 -3.40041209 0 0 0 Z " fill="#FBF8F9" transform="translate(133,120)"/>
<path d="M0 0 C0.99 0.33 1.98 0.66 3 1 C1.02 6.61 -0.96 12.22 -3 18 C-3.66 17.34 -4.32 16.68 -5 16 C-5.66 16.33 -6.32 16.66 -7 17 C-5.1668733 11.00067626 -2.92678249 5.55079437 0 0 Z " fill="#B4B4B4" transform="translate(362,73)"/>
<path d="M0 0 C3.96 0 7.92 0 12 0 C12 0.33 12 0.66 12 1 C8.7 1.33 5.4 1.66 2 2 C2 12.89 2 23.78 2 35 C2.99 35.33 3.98 35.66 5 36 C5.66 36.66 6.32 37.32 7 38 C4.525 38.495 4.525 38.495 2 39 C2 38.34 2 37.68 2 37 C1.34 37 0.68 37 0 37 C0 24.79 0 12.58 0 0 Z " fill="#BDAAB0" transform="translate(131,18)"/>
<path d="M0 0 C2.97 0 5.94 0 9 0 C9 0.99 9 1.98 9 3 C8.34 3 7.68 3 7 3 C7 5.31 7 7.62 7 10 C5.68 10 4.36 10 3 10 C2.67 8.02 2.34 6.04 2 4 C1.01 3.67 0.02 3.34 -1 3 C-0.67 2.01 -0.34 1.02 0 0 Z " fill="#8C8C8C" transform="translate(225,162)"/>
<path d="M0 0 C0.66 0.33 1.32 0.66 2 1 C-0.17259699 5.32309978 -2.28556311 7.10853918 -6.5625 9.3125 C-7.53316406 9.82425781 -8.50382813 10.33601563 -9.50390625 10.86328125 C-12 12 -12 12 -14 12 C-14 10.68 -14 9.36 -14 8 C-11.7136988 6.63597957 -9.42178251 5.28365726 -7.125 3.9375 C-6.47402344 3.54755859 -5.82304687 3.15761719 -5.15234375 2.75585938 C-3.46934275 1.77555467 -1.73703801 0.88101568 0 0 Z " fill="#BEBEBE" transform="translate(174,98)"/>
<path d="M0 0 C0.33 0 0.66 0 1 0 C1 1.65 1 3.3 1 5 C1.59167969 4.91621094 2.18335938 4.83242187 2.79296875 4.74609375 C7.09939457 4.19110576 10.75552644 3.76773348 15 5 C15 5.33 15 5.66 15 6 C10.71 6.66 6.42 7.32 2 8 C1.67 10.64 1.34 13.28 1 16 C0.67 16 0.34 16 0 16 C-0.1953125 13.94921875 -0.390625 11.8984375 -0.5859375 9.84765625 C-0.79089844 8.93306641 -0.79089844 8.93306641 -1 8 C-1.66 7.67 -2.32 7.34 -3 7 C-3.33 6.34 -3.66 5.68 -4 5 C-2.68 5 -1.36 5 0 5 C0 3.35 0 1.7 0 0 Z " fill="#ADA8A9" transform="translate(230,76)"/>
<path d="M0 0 C-0.33 0.66 -0.66 1.32 -1 2 C-4.01953125 2.921875 -4.01953125 2.921875 -7.8125 3.75 C-9.67841797 4.17539063 -9.67841797 4.17539063 -11.58203125 4.609375 C-15.0007449 5.00008513 -16.23354327 4.92327974 -19 3 C-18.67 2.34 -18.34 1.68 -18 1 C-15.85546875 0.62109375 -15.85546875 0.62109375 -13.1875 0.4375 C-10.64600617 0.25355141 -8.2877948 0.07310709 -5.81640625 -0.5546875 C-3.58451149 -1.1018617 -2.16096622 -0.69459629 0 0 Z " fill="#A6A5A6" transform="translate(297,108)"/>
<path d="M0 0 C0.99 0.33 1.98 0.66 3 1 C2.731875 1.515625 2.46375 2.03125 2.1875 2.5625 C0.67650593 5.66401415 -0.65572726 8.82262806 -2 12 C-3.32 11.67 -4.64 11.34 -6 11 C-5.33333333 9.66666667 -4.66666667 8.33333333 -4 7 C-3.2265625 5.4221875 -3.2265625 5.4221875 -2.4375 3.8125 C-1 1 -1 1 0 0 Z " fill="#6E6E6E" transform="translate(338,89)"/>
<path d="M0 0 C-2.475 5.94 -2.475 5.94 -5 12 C-5.33 12 -5.66 12 -6 12 C-6 8.04 -6 4.08 -6 0 C-2 -1 -2 -1 0 0 Z " fill="#FFE1E9" transform="translate(213,87)"/>
<path d="M0 0 C0.33 0 0.66 0 1 0 C1 3.3 1 6.6 1 10 C4.00384054 9.3045656 4.00384054 9.3045656 7 8 C7.96877057 5.96756452 7.96877057 5.96756452 8 4 C7.67 6.31 7.34 8.62 7 11 C5.35 11.66 3.7 12.32 2 13 C2 12.34 2 11.68 2 11 C1.34 11 0.68 11 0 11 C0 7.37 0 3.74 0 0 Z " fill="#C1B9BB" transform="translate(131,109)"/>
<path d="M0 0 C1.09658936 3.28976808 0.79953138 4.71303767 0 8 C-0.66 6.68 -1.32 5.36 -2 4 C-3.32 5.32 -4.64 6.64 -6 8 C-5.67 8.66 -5.34 9.32 -5 10 C-7.70879335 11.35439668 -10.00933268 11.06501451 -13 11 C-12.360625 10.54625 -11.72125 10.0925 -11.0625 9.625 C-8.90297594 8.16078274 -8.90297594 8.16078274 -8 6 C-3.52941176 2 -3.52941176 2 0 2 C0 1.34 0 0.68 0 0 Z " fill="#7C7C7C" transform="translate(308,95)"/>
<path d="M0 0 C-0.33 0.99 -0.66 1.98 -1 3 C-5.07467725 4.48882438 -8.66541415 5.26270217 -13 5 C-10.53364111 1.94171498 -9.30056062 1.06218496 -5.375 0.25 C-3.58629696 0.11750348 -1.7936036 0 0 0 Z " fill="#C9C9C9" transform="translate(148,50)"/>
<path d="M0 0 C0.66 0.66 1.32 1.32 2 2 C-2.29 6.29 -6.58 10.58 -11 15 C-11.66 14.67 -12.32 14.34 -13 14 C-9.79107129 9.91590891 -6.49268766 6.56365176 -2.453125 3.296875 C-0.86712389 2.04219297 -0.86712389 2.04219297 0 0 Z " fill="#BAB8B9" transform="translate(252,81)"/>
<path d="M0 0 C0.99 0.33 1.98 0.66 3 1 C2.01 3.97 1.02 6.94 0 10 C-0.99 9.67 -1.98 9.34 -3 9 C-2.5020163 5.26512223 -2.12508244 3.18762365 0 0 Z " fill="#BABABA" transform="translate(362,73)"/>
<path d="M0 0 C1.2039337 3.75399798 1.09877617 7.33217412 1.0625 11.25 C1.05347656 12.51328125 1.04445312 13.7765625 1.03515625 15.078125 C1.02355469 16.04234375 1.01195312 17.0065625 1 18 C-1 16 -1 16 -1.1953125 12.9609375 C-1.17210937 11.77757813 -1.14890625 10.59421875 -1.125 9.375 C-1.10695312 8.18648437 -1.08890625 6.99796875 -1.0703125 5.7734375 C-1.04710937 4.85820313 -1.02390625 3.94296875 -1 3 C-2.65 3 -4.3 3 -6 3 C-3 1 -3 1 0 0 Z " fill="#7D7376" transform="translate(206,83)"/>
<path d="M0 0 C0.8971875 0.309375 0.8971875 0.309375 1.8125 0.625 C-1.02180453 3.8792015 -2.87357774 5.1456753 -7.1875 5.625 C-5.69046729 2.17030914 -4.27938051 -0.73360809 0 0 Z " fill="#D0D0D0" transform="translate(298.1875,56.375)"/>
<path d="M0 0 C-0.99 0.33 -1.98 0.66 -3 1 C-2.67 1.66 -2.34 2.32 -2 3 C-4.64 3.66 -7.28 4.32 -10 5 C-10 3.68 -10 2.36 -10 1 C-3.71428571 -1.42857143 -3.71428571 -1.42857143 0 0 Z " fill="#B1B1B1" transform="translate(309,54)"/>
<path d="M0 0 C0.185625 0.9590625 0.185625 0.9590625 0.375 1.9375 C0.684375 2.9584375 0.684375 2.9584375 1 4 C1.66 4.33 2.32 4.66 3 5 C1.71034824 6.37562854 0.37310707 7.70766393 -1 9 C-1.66 9 -2.32 9 -3 9 C-2.25 2.25 -2.25 2.25 0 0 Z " fill="#E8E8E8" transform="translate(141,111)"/>
<path d="M0 0 C0.33 0 0.66 0 1 0 C1.33 2.64 1.66 5.28 2 8 C-0.31 7.34 -2.62 6.68 -5 6 C-3.35830472 3.97945196 -1.69088222 1.97956942 0 0 Z " fill="#E8E8E8" transform="translate(306,98)"/>
<path d="M0 0 C-0.33 0.99 -0.66 1.98 -1 3 C-3.64 3.33 -6.28 3.66 -9 4 C-8.67 3.01 -8.34 2.02 -8 1 C-5.07175348 0.02391783 -3.04386724 -0.08226668 0 0 Z " fill="#D5D5D5" transform="translate(161,97)"/>
<path d="M0 0 C1.32 0 2.64 0 4 0 C3.34 2.64 2.68 5.28 2 8 C0.68 7.34 -0.64 6.68 -2 6 C-1.34 4.02 -0.68 2.04 0 0 Z " fill="#BBBBBB" transform="translate(324,89)"/>
<path d="M0 0 C1.65 0 3.3 0 5 0 C5.33 1.32 5.66 2.64 6 4 C5.01 4.495 5.01 4.495 4 5 C1.375 4.0625 1.375 4.0625 -1 3 C-0.67 2.01 -0.34 1.02 0 0 Z " fill="#7C7C7C" transform="translate(216,162)"/>
<path d="M0 0 C0.33 1.32 0.66 2.64 1 4 C2.32 4 3.64 4 5 4 C4.67 4.99 4.34 5.98 4 7 C2.35 6.67 0.7 6.34 -1 6 C-1.625 4.125 -1.625 4.125 -2 2 C-1.34 1.34 -0.68 0.68 0 0 Z " fill="#E0E0E0" transform="translate(342,100)"/>
<path d="M0 0 C0 0.99 0 1.98 0 3 C-0.78375 3.309375 -1.5675 3.61875 -2.375 3.9375 C-4.92330128 4.92875038 -4.92330128 4.92875038 -7 6 C-7 4.35 -7 2.7 -7 1 C-4.53721199 -0.231394 -2.7204945 -0.07159196 0 0 Z " fill="#BBBBBB" transform="translate(308,94)"/>
<path d="M0 0 C0 0.99 0 1.98 0 3 C-2.31 3.66 -4.62 4.32 -7 5 C-7.33 3.68 -7.66 2.36 -8 1 C-2.25 -1.125 -2.25 -1.125 0 0 Z " fill="#B0B0B0" transform="translate(140,104)"/>
<path d="M0 0 C2.475 0.495 2.475 0.495 5 1 C4.67 2.65 4.34 4.3 4 6 C2.68 5.67 1.36 5.34 0 5 C0 3.35 0 1.7 0 0 Z " fill="#959595" transform="translate(193,100)"/>
<path d="M0 0 C0.99 0 1.98 0 3 0 C2.67 2.31 2.34 4.62 2 7 C1.01 7 0.02 7 -1 7 C-1.33 6.34 -1.66 5.68 -2 5 C-1.0625 2.375 -1.0625 2.375 0 0 Z " fill="#BCBCBC" transform="translate(331,73)"/>
<path d="M0 0 C1.32 0 2.64 0 4 0 C4 0.66 4 1.32 4 2 C4.66 2.33 5.32 2.66 6 3 C2.7 3.33 -0.6 3.66 -4 4 C-3.67 3.34 -3.34 2.68 -3 2 C-2.01 2 -1.02 2 0 2 C0 1.34 0 0.68 0 0 Z " fill="#C0C0C0" transform="translate(309,52)"/>
<path d="M0 0 C1.98 0 3.96 0 6 0 C6.66 1.98 7.32 3.96 8 6 C7.01 6.495 7.01 6.495 6 7 C5.7525 6.360625 5.505 5.72125 5.25 5.0625 C4.18437567 2.81258459 4.18437567 2.81258459 1.875 2.25 C0.946875 2.12625 0.946875 2.12625 0 2 C0 1.34 0 0.68 0 0 Z " fill="#ACACAC" transform="translate(240,163)"/>
<path d="M0 0 C-0.33 1.32 -0.66 2.64 -1 4 C-0.34 4.33 0.32 4.66 1 5 C-2.75 6.125 -2.75 6.125 -5 5 C-5 4.01 -5 3.02 -5 2 C-2 0 -2 0 0 0 Z " fill="#D6D6D6" transform="translate(365,99)"/>
<path d="M0 0 C-0.33 2.64 -0.66 5.28 -1 8 C-2.32 7.34 -3.64 6.68 -5 6 C-4.6875 4.125 -4.6875 4.125 -4 2 C-1 0 -1 0 0 0 Z " fill="#BEBEBE" transform="translate(358,88)"/>
<path d="M0 0 C-1.375 1.5 -1.375 1.5 -3 3 C-3.66 3 -4.32 3 -5 3 C-5 2.34 -5 1.68 -5 1 C-6.98 1.33 -8.96 1.66 -11 2 C-6.98764085 -0.6749061 -4.6342454 -1.48957888 0 0 Z " fill="#A5A5A5" transform="translate(153,49)"/>
<path d="M0 0 C0 0.99 0 1.98 0 3 C-1.98 3.33 -3.96 3.66 -6 4 C-6 3.34 -6 2.68 -6 2 C-6.66 1.67 -7.32 1.34 -8 1 C-2.25 -1.125 -2.25 -1.125 0 0 Z " fill="#AEAEAE" transform="translate(167,95)"/>
<path d="M0 0 C0 0.66 0 1.32 0 2 C0.99 2.33 1.98 2.66 3 3 C0.50935112 3.68707555 -1.37886292 4 -4 4 C-4 3.34 -4 2.68 -4 2 C-4.66 1.67 -5.32 1.34 -6 1 C-3.92446352 0.4465236 -2.15634036 0 0 0 Z " fill="#A1A1A1" transform="translate(182,90)"/>
<path d="M0 0 C0.66 0.33 1.32 0.66 2 1 C1.67 2.98 1.34 4.96 1 7 C0.34 6.34 -0.32 5.68 -1 5 C-1.99 5.495 -1.99 5.495 -3 6 C-2.625 3.5625 -2.625 3.5625 -2 1 C-1.34 0.67 -0.68 0.34 0 0 Z " fill="#999999" transform="translate(352,73)"/>
<path d="M0 0 C-0.33 0.66 -0.66 1.32 -1 2 C-3.31 2 -5.62 2 -8 2 C-8 1.34 -8 0.68 -8 0 C-4.94736336 -0.98120464 -3.05263664 -0.98120464 0 0 Z " fill="#BABABA" transform="translate(297,108)"/>
<path d="M0 0 C2 1 2 1 3 3 C0.04335481 4.4783226 -2.74229737 4.06032783 -6 4 C-3.94766315 1.7522025 -2.99332739 0.9977758 0 0 Z " fill="#B1B1B1" transform="translate(327,103)"/>
<path d="M0 0 C0.99 0.33 1.98 0.66 3 1 C2.34 2.32 1.68 3.64 1 5 C0.01 5 -0.98 5 -2 5 C-1.125 1.125 -1.125 1.125 0 0 Z " fill="#A6A6A6" transform="translate(338,89)"/>
<path d="M0 0 C0.66 0.33 1.32 0.66 2 1 C-0.31 3.31 -2.62 5.62 -5 8 C-5.33 7.34 -5.66 6.68 -6 6 C-4 4 -2 2 0 0 Z " fill="#ABABAB" transform="translate(103,119)"/>
</svg>
